<?xml version="1.0" encoding="UTF-8"?><svg id="Layer_2" xmlns="http://www.w3.org/2000/svg" xmlns:xlink="http://www.w3.org/1999/xlink" viewBox="0 0 293.15 293.15"><defs><clipPath id="clippath"><rect width="293.15" height="293.15" rx="24.99" ry="24.99" fill="none"/></clipPath><linearGradient id="linear-gradient" x1="30.82" y1="-494.24" x2="283.85" y2="-747.27" gradientTransform="translate(303.91 -473.61) rotate(-180)" gradientUnits="userSpaceOnUse"><stop offset=".56" stop-color="#fff" stop-opacity="0"/><stop offset="1" stop-color="#fff" stop-opacity=".7"/></linearGradient></defs><g id="Layer_1-2"><g><g clip-path="url(#clippath)"><rect y=".57" width="293.15" height="293.15" rx="24.99" ry="24.99" fill="#ffad69"/><circle cx="268.57" cy="276.66" r="203.96" fill="#e57d00"/><text transform="translate(16.76 48.5)" fill="#fff" font-family="Lexend-Bold, Lexend" font-size="36" font-variation-settings="&apos;wght&apos; 700"><tspan x="0" y="0">P</tspan><tspan x="23.83" y="0" letter-spacing="0em">h</tspan><tspan x="46.51" y="0" letter-spacing="0em">y</tspan><tspan x="68.47" y="0">sics</tspan></text><g><path d="M134.44,195.44c-4.72-4.99-9.3-9.82-13.88-14.67-1.87-1.98-3.47-4.23-.95-6.58,2.76-2.58,4.79-.45,6.72,1.62,4.37,4.7,8.81,9.34,13.54,14.35,2.17-1.89,4.11-3.63,6.11-5.32,5.72-4.85,11.51-9.6,17.13-14.56,1.17-1.03,2.18-2.69,2.46-4.21,2.75-14.68,5.34-29.4,7.97-44.11,.09-.52,.15-1.04,.29-2.1-3.88-1.54-7.77-3.2-11.78-4.54-.73-.25-2.13,.63-2.85,1.36-4.73,4.79-10.21,6.85-16.75,4.55-6.43-2.26-9.87-7.02-10.7-14.3-9.56-1.23-19.2-2.63-28.38,2.15-5.55,2.89-7.97,8.58-7.08,15.34,1.32,10.08,5.97,18.78,11.31,27.17,2.23,3.49,4.71,6.83,7.08,10.23,1.46,2.09,1.52,4.44-.75,5.47-1.33,.61-4.29,.09-5.11-.99-9.11-11.97-17.35-24.45-19.82-39.75-2.17-13.46,4.59-24.25,18.03-26.73,7.49-1.38,15.37-.76,23.08-.75,2.12,0,3.54,0,5.05-1.94,4.14-5.33,9.73-7.42,16.38-5.52,6.57,1.87,10.15,6.41,11.42,13.11,.27,1.45,1.73,3.12,3.09,3.82,3.08,1.57,6.43,2.6,10.14,4.03,1.37-3.35,2.7-6.76,4.14-10.12,4.14-9.64,9.09-18.8,16.64-26.27,12.6-12.48,27.85-12.53,40.46-.08,9.26,9.14,14.61,20.64,19.24,32.55,.48,1.23,.94,2.46,1.47,3.83,6.21-2.25,12.21-4.37,18.17-6.62,2.49-.94,4.7-.79,5.7,1.83,1.11,2.87-.65,4.4-3.28,5.34-6.01,2.15-11.98,4.43-18.09,6.7,1.55,6.91,3.28,13.35,4.41,19.88,1.5,8.68,2.5,17.45,3.8,26.17,.18,1.24,.5,2.81,1.35,3.54,7.98,6.89,16.08,13.63,24.25,20.5,3.36-3.33,6.67-6.59,9.85-9.74-.74-2.61-1.75-4.97-2.04-7.42-1.31-10.86,7.85-19.32,18.56-17.05,2.45,.52,3.61-.08,4.85-2.04,5.33-8.38,10.35-16.91,12.12-26.86,2.14-12.03-3.68-19.94-15.93-20.28-8.74-.25-17.52,1.31-26.29,1.68-1.67,.07-4.24-1.18-4.93-2.56-1.13-2.26,.65-4.08,3.05-4.6,10.1-2.2,20.25-3.87,30.62-2.04,17.25,3.04,24.92,15.38,20.3,32.33-2.67,9.81-7.37,18.6-13.02,26.94-1.23,1.82-1.57,3.13-.38,5.31,3.17,5.82,2.63,11.72-1.54,16.88-4.13,5.12-9.65,7.17-16.1,5.28-2.59-.76-4.11-.24-5.87,1.68-2.43,2.65-5.27,4.92-8.06,7.46,6.1,6.62,11.88,12.53,17.26,18.78,10.58,12.31,20.49,25.13,25.97,40.68,1.49,4.23,2.55,8.78,2.83,13.25,.74,12.09-6.09,20.72-17.87,23.66-12.52,3.12-24.81,1.12-36.87-2.05-10.96-2.87-21.66-6.72-32.92-10.28-1.14,2.84-2.46,6.3-3.91,9.69-4.08,9.52-9,18.53-16.44,25.93-12.77,12.7-27.88,12.81-40.71,.14-1.96-1.93-3.65-2.76-6.57-2.42-6.23,.72-11.28-1.89-14.56-7.29-3.26-5.37-3.62-11.31,.18-16.22,2.91-3.76,2.13-6.57,.21-10.13-7.72,2.68-15.41,5.6-23.25,8.02-11.78,3.63-23.77,6.45-36.22,5.97-3.84-.15-7.78-.69-11.45-1.77-12.17-3.59-18.28-13.65-16.4-26.26,1.72-11.54,6.59-21.86,13.51-30.92,9.15-11.99,19.22-23.28,28.92-34.86,.93-1.11,1.99-2.1,3.11-3.27Zm125.96,75.61c7.11,2.58,13.88,5.36,20.86,7.51,12.91,3.98,25.91,7.61,39.7,6.14,14.03-1.5,19.9-9.24,16.26-22.78-1.67-6.23-4.37-12.36-7.57-17.98-9.26-16.27-21.77-29.97-35.1-43.07-8.31,7-16.42,13.74-24.37,20.65-.92,.8-1.19,2.56-1.38,3.93-.72,5.3-1.19,10.63-1.94,15.92-.36,2.53-.99,5.46-4.44,5.01-3.62-.47-3.56-3.34-3.12-6.21,.54-3.51,.99-7.04,1.57-11.18-12.24,8.29-23.86,16.17-36.05,24.43,9.64,4.93,18.86,9.65,28.47,14.57,.87-3.25,1.67-5.91,2.29-8.61,.63-2.75,1.75-5.13,5.02-4.31,3.35,.83,3,3.64,2.37,6.24-.76,3.08-1.61,6.14-2.57,9.74Zm-86.98,.7c.21-1.39,.32-1.66,.28-1.91-2.69-15.22-5.38-30.44-8.13-45.65-.18-.98-.61-2.14-1.32-2.75-8-6.85-16.08-13.6-24.66-20.83-6.75,7.49-13.68,14.71-20.06,22.4-8.9,10.72-17.09,21.96-21.52,35.42-4.84,14.74-.61,25.6,16.68,26.19,8.68,.3,17.64-.78,26.11-2.77,11.22-2.63,22.08-6.76,32.61-10.1Zm88.67-76.38c0-6.69,.13-13.38-.1-20.06-.05-1.46-1.03-3.41-2.22-4.23-13.26-9.25-26.6-18.38-40.06-27.34-1.17-.78-3.73-.84-4.88-.08-13.46,8.96-26.8,18.08-40.05,27.35-1.26,.88-2.32,3.01-2.34,4.57-.18,13.24-.18,26.48,.01,39.72,.02,1.56,1.12,3.67,2.39,4.56,13.14,9.19,26.37,18.24,39.71,27.14,1.2,.8,3.76,1.01,4.88,.27,13.57-9.03,27.01-18.25,40.38-27.58,1.18-.82,2.12-2.79,2.17-4.26,.23-6.68,.1-13.37,.1-20.06Zm-11.12-80.07c-3.96-11.32-8.71-22.17-16.51-31.39-10.71-12.65-23.61-12.71-34.35-.14-7.93,9.27-12.73,20.21-16.63,31.54,10.91,5.81,21.6,11.54,32.34,17.16,.77,.4,2.15,.31,2.96-.11,10.63-5.56,21.21-11.22,32.19-17.05Zm-50.36,192.03c9.93,11.47,21.71,12.03,31.86,1.64,9.27-9.49,14.31-21.34,18.48-33.51-10.47-5.53-20.67-10.8-30.73-16.33-2.34-1.28-4-1.1-6.21,.15-6.4,3.61-12.92,7.02-19.44,10.42-3.65,1.9-7.38,3.63-11.02,5.4q1.67,5.83,7.24,6.28c6.67,.54,12.74,6.23,13.61,12.76,.65,4.89-.57,9.28-3.79,13.19Zm-20.08-184.84c-2.56,13.53-4.93,26.06-7.3,38.6l1.13,.19c11.56-7.83,23.11-15.66,35.22-23.86-9.53-4.9-18.75-9.64-29.05-14.93Zm44.31,14.94c12.2,8.25,23.84,16.12,36.65,24.79-2.66-13.79-5.09-26.41-7.66-39.69-10.24,5.27-19.47,10.01-28.99,14.91Zm-15.24,115.97c-12.22-8.27-23.85-16.15-35.47-24.02l-.94,.41c2.44,12.61,4.88,25.21,7.46,38.5,10.24-5.26,19.45-10,28.96-14.89Zm60.6-41.62c6.65-5.79,12.54-10.92,18.83-16.4-6.32-5.48-12.27-10.64-18.83-16.32v32.72Zm-106.04-32.72c-6.6,5.76-12.53,10.94-18.74,16.37,6.37,5.52,12.26,10.62,18.74,16.24v-32.61Zm-8.86-72.58c-.01-4.31-3.62-8.01-7.85-8.06-4.27-.05-8.31,4.05-8.16,8.29,.15,4.35,3.72,7.69,8.19,7.65,4.53-.04,7.84-3.36,7.82-7.88Zm33.77,198.19c4.34-.02,7.88-3.48,7.97-7.78,.09-4.29-3.8-8.26-8.06-8.23-4.14,.03-7.85,3.74-7.93,7.93-.09,4.53,3.46,8.11,8.03,8.08Zm128.33-126.06c4.42,.04,7.99-3.35,8.12-7.7,.13-4.35-3.78-8.35-8.1-8.28-4.22,.06-7.86,3.79-7.86,8.08,0,4.44,3.4,7.87,7.84,7.91Z" fill="#fff"/><path d="M246.11,195.29c.03,15.88-12.88,28.94-28.67,29-16.06,.06-29.13-12.95-29.1-28.98,.03-15.83,13.02-28.79,28.88-28.79,15.86,0,28.87,12.95,28.9,28.77Zm-28.75,21.37c11.8-.11,21.07-9.41,21.12-21.19,.05-11.9-9.51-21.42-21.39-21.31-11.79,.11-21.07,9.41-21.12,21.19-.06,11.88,9.53,21.43,21.4,21.32Z" fill="#fff"/></g></g><rect x="12.72" y="13.29" width="267.72" height="267.72" rx="24.99" ry="24.99" fill="url(#linear-gradient)"/></g></g></svg>