<?xml version="1.0" encoding="UTF-8"?><svg id="Layer_2" xmlns="http://www.w3.org/2000/svg" xmlns:xlink="http://www.w3.org/1999/xlink" viewBox="0 0 472.53 480.62"><defs><clipPath id="clippath"><rect width="293.15" height="293.15" rx="24.99" ry="24.99" fill="none"/></clipPath><linearGradient id="linear-gradient" x1="-2108.55" y1="245.94" x2="-1855.51" y2="-7.09" gradientTransform="translate(-1835.45 266.57) rotate(-180)" gradientUnits="userSpaceOnUse"><stop offset=".56" stop-color="#fff" stop-opacity="0"/><stop offset="1" stop-color="#fff" stop-opacity=".7"/></linearGradient></defs><g id="Layer_1-2"><g><g clip-path="url(#clippath)"><rect y=".57" width="293.15" height="293.15" rx="24.99" ry="24.99" fill="#a652dd"/><circle cx="268.57" cy="276.66" r="203.96" fill="#8724b5"/><text transform="translate(16.76 48.5)" fill="#fff" font-family="Lexend-Bold, Lexend" font-size="36" font-variation-settings="&apos;wght&apos; 700"><tspan x="0" y="0">Chemistry</tspan></text><g><path d="M180.12,82.25c8.72,4.36,17.23,8.62,26,13.01v22.26c6.27,3.15,12.32,6.19,18.54,9.31,5.74-2.86,11.52-5.65,17.2-8.63,2.59-1.36,5.18-1.99,8.14-1.97,13.62,.11,27.25,.05,40.87,.05,1.34,0,2.69,0,4.29,0v7.58c-1.22,.05-2.52,.14-3.83,.14-13.38,.01-26.75,.03-40.13-.01-2.03,0-3.85,.35-5.68,1.3-5.57,2.91-11.23,5.67-16.86,8.5v8.92c6.43,3.28,8.73,8.55,6.6,15.5,2.39,2.36,4.67,4.61,7.12,7.03,3.28-.79,6.78-1.26,10.14,.72,2.46,1.44,4.25,3.43,5.14,6.1,1.46,4.35,.99,10.65-6.64,14.57v14.87h16.58c.54-.51,1.37-1.24,2.15-2.01,11.56-11.55,23.14-23.09,34.67-34.68,2.49-2.5,5.34-3.97,8.88-3.93,5.06,.06,8.81,2.31,10.84,6.99,1.94,4.48,1.33,8.76-1.83,12.49-1.84,2.17-3.96,4.09-5.98,6.1-5.44,5.42-10.88,10.82-16.53,16.43,2.89,2.5,3.29,5.7,3.06,9.11-.09,1.36,0,2.72-.02,4.09-.07,4.72-1.73,6.85-6.4,8.23-.23,.07-.44,.18-1.03,.43,0,1.16,0,2.5,0,3.83,0,21.92-.03,43.84,.02,65.76,.01,5.51-1.84,10.18-5.78,13.96-3.42,3.29-7.52,5.18-12.34,5.19-17.71,.02-35.42,.02-53.13,.01-4.97,0-9.12-1.96-12.63-5.38-1.04-1.01-1.95-2.14-2.91-3.21-.7,1.32-1.25,2.74-2.13,3.91-2.37,3.17-5.52,4.73-9.58,4.71-14.37-.07-28.73-.03-43.1-.03-6.69,0-13.38-.1-20.06,.03-5.7,.11-9.36-2.73-11.54-7.68-1.49-3.38-2.66-6.91-4.02-10.35-2.56-6.46-1.78-12.56,1.76-18.45,5.94-9.85,11.81-19.74,17.76-29.58,.86-1.42,1.35-2.85,1.35-4.53-.04-13.13-.02-26.26-.03-39.38,0-.36-.09-.72-.16-1.2-.79-.25-1.62-.43-2.39-.76-3-1.27-4.78-3.46-4.85-6.81-.05-2.6-.08-5.2,0-7.8,.13-4.53,2.96-7.41,7.46-7.52,3.96-.1,7.93-.02,11.89-.03,.84,0,1.68,0,2.72,0v-12.25c-7.18-3.61-14.45-7.26-21.9-11.01v-22.13c-5.96-3.36-12.13-6.12-18.09-9.18-6.27,3.86-11.51,3.8-15.7-.13-3.69-3.46-4.7-8.82-2.5-13.27,2.35-4.77,7.42-7.23,12.71-6.19,5.18,1.02,8.42,5.38,9,12.39,5.9,2.96,11.95,6,18.21,9.15,6.02-3,12.08-6.03,18.42-9.19v-22.24c8.8-4.41,17.39-8.72,26.22-13.14Zm40.34,196.62c2.49-8.65,6.5-13.08,13.01-13.84,8.6-1,14.03,3.34,17.13,10.98,4.57-.08,8.44,1.34,11.9,3.95,.79,.59,1.6,1.18,2.45,1.67,4.08,2.38,8.27,2.53,12.27,.02,3.32-2.09,6.43-4.53,10.23-5.34v-7.49h-14.33v-7.69h14.38v-7.19h-14.44v-7.5c4.96-.29,9.74,.1,14.71-.24-.31-2.54,.29-4.73-.51-7.14h-14.33c-.01-2.68-.52-5.07,.47-7.69h14.08v-6.82h-73.62v51.58c2.32,.97,4.46,1.86,6.59,2.76Zm-58.65-99.43c1.64,0,2.88,0,4.11,0,8.17,0,16.35,.21,24.51-.08,4.66-.16,8.92,3.44,8.42,8.58-.21,2.08,0,4.21-.05,6.31-.09,3.9-1.8,6.27-5.39,7.56-.66,.24-1.34,.43-2.03,.64,0,13.69-.04,27.18,.05,40.68,0,1.39,.53,2.93,1.23,4.15,3.02,5.25,6.2,10.41,9.32,15.6,1.19,1.98,2.39,3.96,3.76,6.22v-44.49c-5.7-1.66-7.21-3.64-7.23-9.31,0-2.23-.03-4.46,.03-6.69,.06-2.41,1.29-4.2,3.17-5.6,1.58-1.18,3.4-1.3,5.3-1.3,10.9,.02,21.79,.02,32.69,0,1.07,0,2.14-.12,3.21-.19v-14.96c-3.03-1.48-5.29-3.48-6.53-6.51-1.23-3.01-.7-6.04-.06-8.83-2.42-2.45-4.66-4.72-7.01-7.1-4.45,1.44-8.71,1.03-12.44-2.16-4.94,2.44-9.8,4.84-14.52,7.17-7.66-3.81-15.05-7.49-22.31-11.1-6.34,3.19-12.39,6.24-18.23,9.18v12.21Zm12.99,85.4c2.14-2.22,3.87-4.36,5.96-6.06,2.05-1.66,4.47-2.86,6.68-4.23-.03-.25-.02-.39-.07-.49-.22-.44-.4-.91-.69-1.3-2.48-3.33-3.13-7.07-3.07-11.18,.15-11.87,.05-23.75,.05-35.63v-3.77h-36.86v3.78c0,12-.11,24,.06,36,.06,4.02-.97,7.45-3.06,10.83-5.44,8.81-10.69,17.73-16.09,26.72,4.54-.6,8.51-1.81,10.85-6.05,.59-1.06,1.5-1.95,2.32-2.88,5.04-5.77,11.32-8.96,19.03-9.41,5.36-.31,10.25,1.1,14.89,3.66Zm30.8,24.67c-1.64,.21-2.48,.32-3.32,.43-3.05,.41-6.09,.98-9.15,1.21-7.51,.55-14.74-.98-21.84-3.26-6.12-1.97-12.34-3.57-18.77-3.96-6.71-.41-13.29,.53-19.7,2.6-2.67,.86-5.47,1.48-7.56,3.33-.05,.45-.17,.72-.1,.93,1.64,4.38,3.2,8.79,5.06,13.08,.39,.89,1.87,1.43,2.95,1.83,.76,.28,1.71,.07,2.58,.07,19.68,0,39.36,0,59.04,0,.87,0,1.78,.14,2.59-.07,.91-.24,2.19-.59,2.53-1.28,2.28-4.59,4.32-9.29,5.68-14.9Zm8.1-5.17c0,3.86-.14,7.2,.03,10.52,.21,4.09,2.07,7.35,5.69,9.41,2.2,1.25,4.65,1.51,7.16,1.51,16.08-.02,32.17-.01,48.25-.01,.62,0,1.24,.03,1.86-.02,6.31-.48,10.56-4.61,10.96-10.92,.21-3.32,.04-6.66,.04-10.5-1.79,1.15-3.27,1.98-4.62,2.99-7.11,5.3-16.84,5.26-23.84-.03-.79-.6-1.58-1.19-2.42-1.7-2.75-1.66-5.7-2.43-8.82-1.31-1.71,.61-3.51,1.3-4.9,2.42-7.52,6.09-18.08,6.06-25.35,.14-1.04-.84-2.28-1.43-4.02-2.5Zm-37.52-150.6c-6.27-3.11-12.41-6.17-18.42-9.15-6.35,3.2-12.38,6.24-18.2,9.18v17.37c6.21,3.1,12.27,6.12,18.31,9.14,6.29-3.17,12.4-6.26,18.32-9.24v-17.29Zm22.23-33.44c-6.08-3.05-12.11-6.08-18.27-9.17-6.18,3.1-12.32,6.18-18.31,9.18v17.36c6.17,3.08,12.22,6.11,18.28,9.13,6.2-3.11,12.25-6.14,18.3-9.18v-17.34Zm-14.36,50.79c6.29,3.14,12.36,6.16,18.4,9.18,3.8-1.94,7.4-3.77,10.95-5.58-.19-2.85,.19-5.37,1.83-7.32,1.55-1.85,3.53-3.35,5.49-5.16v-8.48c-6.13-3.05-12.28-6.11-18.35-9.13-6.3,3.17-12.35,6.21-18.31,9.22v17.28Zm22.38,65.33h88.7v-6.79h-88.7v6.79Zm-15.52-29.09h-51.37v6.8h51.37v-6.8Zm98.82,14.3c.37-.32,.77-.61,1.11-.96,8.13-8.12,16.25-16.24,24.37-24.37,.52-.52,1.04-1.07,1.43-1.69,1.05-1.67,.85-3.38-.45-4.73-1.3-1.34-3.08-1.62-4.7-.57-.92,.59-1.71,1.41-2.49,2.19-9.27,9.25-18.52,18.5-27.78,27.77-.68,.68-1.32,1.41-2.19,2.35h10.71Zm-119.34,77.67c1.94-1.58,3.46-2.82,4.99-4.06-8.27-9.04-22.48-7.62-28.42,.88,8.12-.45,15.83,.98,23.43,3.18Zm30.42-2.9c-7.59-.34-14.37,.97-20.65,5.31,6.21,2.51,17.74,2.09,23.44-.76-.9-1.47-1.79-2.93-2.78-4.55Zm28.95,7.03c5.41,.03,8.9-3.28,12.68-6.06-2.73-4.47-6.15-5.75-9.87-3.86-3.52,1.78-4.63,5.49-2.81,9.92Zm-33.86-15.29c-1.12-1.85-2.37-3.92-3.72-6.13-4.77,.87-8.13,3.34-10.37,7.4,.9,1.34,1.86,1.39,3.25,1.04,3.55-.9,7.15-1.55,10.83-2.31ZM109.25,116.38c-.02-1.55-1.76-3.34-3.33-3.43-1.64-.09-3.64,1.85-3.61,3.51,.02,1.55,1.76,3.34,3.33,3.43,1.64,.09,3.64-1.85,3.61-3.51Zm118.9,37.14c-.03-1.53-1.8-3.34-3.34-3.42-1.65-.09-3.63,1.86-3.6,3.52,.03,1.55,1.78,3.34,3.34,3.42,1.64,.08,3.63-1.86,3.6-3.52Zm22.29,22.22c-.08-1.55-1.88-3.31-3.41-3.34-1.66-.04-3.61,1.95-3.52,3.6,.08,1.55,1.88,3.31,3.41,3.34,1.66,.04,3.61-1.95,3.53-3.6Z" fill="#fff"/><path d="M250.66,138.65v-6.91c2.81-.77,35.62-1.07,44.3-.41,.9,2.32,.36,4.72,.38,7.32h-44.68Z" fill="#fff"/><path d="M272.98,153.48v-6.85c2.57-.79,17.75-.95,22.24-.21v7.06h-22.24Z" fill="#fff"/><path d="M250.54,153.5v-6.85c2.85-.82,10.99-.91,15.02-.19,.05,.9,.12,1.86,.14,2.82,.02,1.33,0,2.66,0,4.22h-15.16Z" fill="#fff"/><path d="M153.94,235.15c-.4-5.54,5.13-11.23,11.36-11.21,5.37,.02,11.46,4.96,11.3,11.74-.11,5-4.84,11.12-11.64,11.02-5.25-.08-11.49-5.02-11.02-11.55Zm11.11-3.3c-1.74,.12-3.5,2.18-3.27,3.83,.22,1.57,2.14,3.21,3.62,3.11,1.74-.12,3.5-2.18,3.27-3.83-.22-1.57-2.14-3.21-3.62-3.11Z" fill="#fff"/></g></g><rect x="12.72" y="13.29" width="267.72" height="267.72" rx="24.99" ry="24.99" fill="url(#linear-gradient)"/></g></g></svg>