<?xml version="1.0" encoding="UTF-8"?><svg id="Layer_2" xmlns="http://www.w3.org/2000/svg" xmlns:xlink="http://www.w3.org/1999/xlink" viewBox="0 0 472.53 480.62"><defs><clipPath id="clippath"><rect width="293.15" height="293.15" rx="24.99" ry="24.99" fill="none"/></clipPath><linearGradient id="linear-gradient" x1="30.82" y1="245.94" x2="283.85" y2="-7.09" gradientTransform="translate(303.91 266.57) rotate(-180)" gradientUnits="userSpaceOnUse"><stop offset=".56" stop-color="#fff" stop-opacity="0"/><stop offset="1" stop-color="#fff" stop-opacity=".7"/></linearGradient></defs><g id="Layer_1-2"><g><g clip-path="url(#clippath)"><rect y=".57" width="293.15" height="293.15" rx="24.99" ry="24.99" fill="#7171ff"/><circle cx="268.57" cy="276.66" r="203.96" fill="#3939ff"/><path d="M272.74,244.78h-26.71c0,2.13,.04,4.1,0,6.06-.09,3.73-1.38,5.06-5.15,5.08-10.35,.04-20.7,.01-31.04,.02-.69,0-1.39,.07-2.37,.13-.08,1.07-.22,2.08-.22,3.09-.02,5.29,.14,10.59-.05,15.87-.17,4.63,0,8.28,5.04,11.14,5.7,3.24,7.07,10.89,4.59,16.96-2.58,6.32-8.65,9.82-15.87,9.17-5.83-.53-11.47-5.71-12.67-11.64-1.31-6.49,1.54-13.1,7.42-16.13,2.33-1.2,3.1-2.45,3.04-5.05-.2-7.72-.07-15.45-.07-23.37h-18.62c0,5.07,0,9.97,0,14.88,0,4.82,.05,9.64-.02,14.46-.06,4.43-1.36,5.73-5.68,5.75-8.82,.03-17.64,.03-26.46,0-3.91-.01-5.6-1.31-5.64-4.21-.04-2.95,1.67-4.34,5.51-4.35,7.63-.03,15.26,0,23.16,0v-26.71c-2.06,0-4.03,.04-6,0-3.7-.09-5.03-1.4-5.05-5.18-.04-10.47-.02-20.93-.03-31.4,0-.57-.08-1.15-.14-1.99-1.08-.08-2.09-.21-3.11-.22-5.29-.02-10.59,.16-15.87-.06-4.67-.2-8.26,.09-11.12,5.07-3.26,5.68-10.9,7.04-16.97,4.55-6.32-2.6-9.81-8.66-9.14-15.89,.53-5.72,5.45-11.18,11.32-12.57,6.46-1.53,13.38,1.38,16.45,7.38,1.21,2.35,2.5,3.07,5.07,3.01,7.63-.19,15.28-.07,23.22-.07v-18.62c-5.57,0-11.06,0-16.56,0-4.12,0-8.23,.04-12.35-.01-4.85-.06-6.07-1.28-6.08-6.07-.02-17.05-.04-34.1,.03-51.15,0-2.19-.4-3.49-2.62-4.58-6.37-3.15-9.4-10.28-7.62-16.93,1.76-6.59,7.78-11.24,14.53-11.22,6.76,.02,12.77,4.7,14.49,11.28,1.74,6.66-1.38,13.69-7.68,16.95-1.53,.79-2.64,1.33-2.62,3.49,.12,15.87,.07,31.75,.08,47.62,0,.45,.1,.9,.18,1.55h26.52c0-1.94-.03-3.89,0-5.84,.07-3.96,1.33-5.24,5.33-5.26,9.76-.04,19.52-.01,29.28-.01,1.26,0,2.53,0,4.18,0,0-8.89,.07-17.43-.12-25.98-.02-.8-1.55-1.75-2.55-2.3-6.02-3.34-9.18-10.17-7.64-16.75,1.48-6.32,7.27-11.16,13.61-11.38,7.39-.26,13.14,3.69,15.28,10.51,2.15,6.83-.88,14.32-7.49,17.56-2.08,1.02-2.58,2.15-2.55,4.26,.11,7.86,.04,15.72,.04,23.84h18.62c0-1.82,0-3.64,0-5.47,0-7.88-.04-15.76,.02-23.63,.03-4.62,1.34-5.91,5.85-5.93,8.7-.03,17.4-.02,26.1,0,4.14,0,5.88,1.36,5.82,4.39-.06,2.88-1.76,4.16-5.68,4.18-7.62,.02-15.23,0-23.05,0v26.71c1.98,0,3.93-.03,5.89,0,3.93,.08,5.21,1.34,5.23,5.36,.04,9.76,.01,19.52,.01,29.28,0,1.26,0,2.52,0,4.14,8.91,0,17.46,.07,26.01-.12,.79-.02,1.73-1.57,2.29-2.58,3.33-6,10.2-9.16,16.77-7.6,6.34,1.51,11.14,7.27,11.36,13.63,.25,7.39-3.71,13.13-10.54,15.26-6.83,2.13-14.26-.93-17.57-7.52-.92-1.83-1.83-2.57-3.9-2.54-7.64,.13-15.29,.06-22.93,.08-.34,0-.67,.13-1.24,.24v18.35c2.44,0,4.86,0,7.27,0,7.17,0,14.35-.03,21.52,.01,5.06,.03,6.25,1.23,6.25,6.24,.01,16.93,.03,33.86-.02,50.8,0,2.25,.28,3.68,2.75,4.87,6.23,2.99,9.18,10.11,7.54,16.66-1.67,6.67-7.93,11.49-14.77,11.38-6.74-.11-12.79-4.92-14.38-11.45-1.6-6.57,1.44-13.59,7.61-16.66,2.12-1.06,2.77-2.19,2.75-4.49-.11-15.98-.06-31.96-.06-48.33Zm-104.12-66.34v68.63h68.58v-68.63h-68.58Zm-39.94-57.36c3.33,.1,6.42-2.85,6.42-6.13,0-3.15-2.84-6-6.07-6.08-3.39-.08-6.42,2.79-6.42,6.08,0,3.13,2.87,6.02,6.07,6.12Zm80.5,7.14c.04-3.03-2.93-6.14-6.01-6.29-3.13-.16-6.43,3-6.47,6.19-.04,3.18,3.2,6.38,6.36,6.29,3.07-.08,6.08-3.13,6.12-6.19Zm-84.68,84.75c.09-3.02-2.84-6.15-5.94-6.36-3.12-.21-6.45,2.9-6.54,6.11-.08,3.01,2.84,6.15,5.94,6.36,3.12,.21,6.45-2.89,6.54-6.11Zm169.36-.15c-.02-3.05-3.02-6.11-6.09-6.21-3.16-.11-6.41,3.08-6.39,6.27,.02,3.05,3.02,6.11,6.09,6.21,3.15,.1,6.41-3.09,6.39-6.27Zm-84.68,84.84c.09-3.02-2.83-6.15-5.94-6.36-3.12-.21-6.45,2.9-6.54,6.11-.09,3.02,2.84,6.15,5.94,6.36,3.12,.21,6.45-2.9,6.55-6.11Zm74.09,13.03c-.03-3.29-3.14-6.21-6.47-6.08-3.21,.13-6.06,3.04-6.02,6.17,.04,3.3,3.08,6.14,6.46,6.03,3.22-.1,6.06-2.99,6.03-6.13Z" fill="#fff"/><path d="M300.75,153.61c-8.37-.02-14.95-6.68-14.86-15.03,.09-8.35,6.73-14.75,15.2-14.68,8.15,.07,14.71,6.69,14.72,14.85,0,8.29-6.68,14.89-15.06,14.86Zm6.16-14.73c.06-3.38-2.85-6.41-6.13-6.37-3.15,.04-6,2.91-6.07,6.12-.07,3.33,2.91,6.41,6.17,6.37,3.17-.04,5.97-2.88,6.03-6.12Z" fill="#fff"/><path d="M104.94,272.07c8.42-.03,15.03,6.49,15.04,14.84,0,8.35-6.6,14.89-15.01,14.87-8.21-.02-14.78-6.49-14.9-14.66-.12-8.29,6.54-15.02,14.87-15.04Zm6.23,15.03c.1-3.33-2.85-6.42-6.13-6.42-3.15,0-6,2.84-6.08,6.07-.08,3.39,2.79,6.42,6.08,6.42,3.13,0,6.02-2.87,6.12-6.07Z" fill="#fff"/><path d="M275.45,134.49c2.12,.05,3.7,1.42,3.79,4.06,.09,2.59-1.24,4.24-3.95,4.43-2.55,.18-4.62-1.75-4.63-4.22-.01-2.35,1.82-4.2,4.79-4.27Z" fill="#fff"/><path d="M130.87,291.21c-2.69-.16-4.21-1.57-4.24-4.21-.03-2.61,1.38-4.18,4.08-4.31,2.54-.12,4.67,1.9,4.47,4.35-.2,2.58-1.7,4.01-4.32,4.17Z" fill="#fff"/><path d="M202.85,233.27c-4.82,0-9.64,.06-14.46-.02-4.02-.07-5.83-1.84-5.86-5.87-.07-9.76-.08-19.51,0-29.27,.03-3.82,1.86-5.65,5.68-5.68,9.87-.08,19.75-.09,29.62,0,3.62,.03,5.46,1.87,5.5,5.5,.09,9.87,.09,19.75,0,29.62-.03,3.82-1.86,5.61-5.68,5.68-4.94,.1-9.87,.02-14.81,.02Zm-11.06-9.37h22.18v-22.18h-22.18v22.18Z" fill="#fff"/><text transform="translate(16.76 48.5)" fill="#fff" font-family="Lexend-Bold, Lexend" font-size="36" font-variation-settings="&apos;wght&apos; 700"><tspan x="0" y="0" letter-spacing="-.1em">T</tspan><tspan x="19.98" y="0" letter-spacing="0em">echno</tspan><tspan x="129.49" y="0" letter-spacing="0em">l</tspan><tspan x="140.08" y="0">ogy</tspan></text></g><rect x="12.72" y="13.29" width="267.72" height="267.72" rx="24.99" ry="24.99" fill="url(#linear-gradient)"/></g></g></svg>