<?xml version="1.0" encoding="UTF-8"?><svg id="Layer_2" xmlns="http://www.w3.org/2000/svg" xmlns:xlink="http://www.w3.org/1999/xlink" viewBox="0 0 472.53 480.62"><defs><clipPath id="clippath"><rect width="293.15" height="293.15" rx="24.99" ry="24.99" fill="none"/></clipPath><linearGradient id="linear-gradient" x1="-1398.64" y1="245.94" x2="-1145.6" y2="-7.09" gradientTransform="translate(-1125.54 266.57) rotate(-180)" gradientUnits="userSpaceOnUse"><stop offset=".56" stop-color="#fff" stop-opacity="0"/><stop offset="1" stop-color="#fff" stop-opacity=".7"/></linearGradient></defs><g id="Layer_1-2"><g><g clip-path="url(#clippath)"><rect y=".57" width="293.15" height="293.15" rx="24.99" ry="24.99" fill="#e0cb51"/><circle cx="268.57" cy="276.66" r="203.96" fill="#b79e23"/><text transform="translate(16.76 48.5)" fill="#fff" font-family="Lexend-Bold, Lexend" font-size="36" font-variation-settings="&apos;wght&apos; 700"><tspan x="0" y="0">His</tspan><tspan x="57.35" y="0" letter-spacing="0em">t</tspan><tspan x="71.5" y="0">ory</tspan></text><g><path d="M122.82,170.72c-2,0-3.56,.03-5.13,0-4.97-.11-8.45-2.64-9.09-7.42-.45-3.35-.3-6.9,.32-10.22,.34-1.82,1.88-4.25,3.47-4.84,3.64-1.36,3.27-3.91,3.35-6.74,.06-2.18-.84-2.92-2.82-3.46-11.52-3.16-18.86-12.53-19.15-24.21-.27-11.24,6.89-21.28,17.97-24.76,2.65-.83,5.56-1.17,8.35-1.17,37.08-.07,74.16-.08,111.23-.04,13.27,.02,24.26,9,26.02,21.09,2.03,13.86-5.35,25.13-19.01,29.26-1,.3-2.45,1.69-2.37,2.44,.21,2.19-1.59,4.86,1.49,6.54,6.14,3.33,8.32,15.15,3.49,20.25-1.6,1.69-4.35,2.46-6.72,3.18-1.56,.47-3.37,.09-5.3,.09v29.98h5.9c4.49-12.31,8.8-24.82,13.61-37.14,4.89-12.52,14.87-18.85,27.75-20.81,1.84-.28,4.59,.73,5.85,2.11,8.94,9.82,12.12,21.3,7.93,34.1-3.56,10.85-7.89,21.44-11.68,32.22-1.39,3.95-3.68,6.81-7.27,8.89-.89,.51-1.63,1.98-1.7,3.06-.22,3.44-.08,6.89-.08,10.34,0,2.48-.73,4.56-3.61,4.56-2.91,0-3.58-2.13-3.59-4.58-.01-3.67,0-7.35,0-10.78-.42-.3-.51-.42-.61-.43q-6.81-.96-9.09,5.34c-.67,1.85-1.29,3.71-2,5.55-.83,2.14-2.4,3.28-4.64,2.41-2.2-.85-2.69-2.67-1.85-4.87,1.09-2.87,2.07-5.79,3.22-8.63,.74-1.83,.49-2.92-1.2-4.3-2.93-2.38-5.39-5.33-8.12-7.97-.72-.7-1.69-1.63-2.54-1.64-16.37-.1-32.74-.07-49.83-.07,4.11,6.06,3.31,12.41,3.31,18.63,.02,22.91-.01,45.82,.02,68.74,.01,9.07,7.33,14.21,15.79,11.15,4.23-1.53,7.21-5.35,6.86-10.33-.78-10.89,2.52-13.76,13.81-13.38,12.05,.41,24.12,.09,36.64,.09,.08-1.44,.2-2.73,.2-4.02,.02-8.38,0-16.75,0-25.13,0-.86,0-1.72,0-2.59,.04-2.33,.81-4.32,3.42-4.41,2.81-.09,3.77,1.89,3.77,4.42,.01,7.88,0,15.77,0,23.65,0,2.56,0,5.12,0,8.08,6.84,0,13.33-.02,19.82,0,6.31,.02,9.55,2.89,9.31,9.21-.17,4.44-.62,9.23-2.43,13.18-2.68,5.86-8.06,8.73-14.7,8.73-16.01,0-32.03,0-48.04,0-1.33,0-2.66,0-4.5,0,0,2.35,0,4.4,0,6.45,0,2.39-1.34,4.09-3.55,3.62-1.29-.27-2.73-2.17-3.17-3.62-.55-1.79-.13-3.88-.13-6.15h-12.39c0,2.09,.42,4.37-.14,6.38-.39,1.39-2.15,2.4-3.29,3.58-1.1-1.23-2.74-2.31-3.16-3.74-.55-1.9-.14-4.08-.14-5.77-4.81-.99-9.18-1.88-14.02-2.87,0,2.17-.03,4.91,0,7.64,.04,2.48-.58,4.65-3.45,4.67-2.91,.02-3.42-2.14-3.42-4.63,.03-27.47,.02-54.94,.02-82.41,0-1.44,0-2.88,0-4.52h-12.21c0,1.64,0,3.08,0,4.52,0,26.85,0,53.71,0,80.56,0,1.23,.32,2.64-.17,3.64-.57,1.15-1.9,2.72-2.85,2.69-1.24-.04-2.76-1.25-3.55-2.38-.59-.86-.26-2.38-.26-3.61,0-27.1,0-54.2,0-81.3,0-1.34,0-2.68,0-4.15-4.56-.2-8.35-1.34-10-5.87-2.77-7.65,.63-18.21,7.32-22.78,.8-.55,1.63-1.06,2.4-1.56-.79-4.26-3.62-6.85-7.09-6.6-3.81,.27-6.63,3.54-6.63,7.96-.03,23.77-.01,47.55-.02,71.32,0,.99-.06,1.98,0,2.96,.19,2.57-.72,4.68-3.44,4.68-2.78,0-3.37-2.25-3.37-4.75,.04-24.64,0-49.27,.03-73.91,0-8.01,4.26-13.63,11.08-14.85,7.36-1.31,13.36,2.43,16.25,10.14,.16,.44,.3,.89,.47,1.41h11.77c2.18-7.18,6.53-12.03,14.69-11.68,7.43,.31,11.44,4.87,13.26,11.59h12.04v-29.79h-91.92c0,1.55,0,3.09,0,4.63,0,47.43,0,94.85-.02,142.28,0,2.73,.75,6.44-3.49,6.36-4.21-.07-3.34-3.79-3.34-6.5-.02-47.42-.02-94.85-.02-142.27v-4.72Zm105.66-24.26c.48-6.98,.44-6.88-5.17-9.12-8.18-3.26-13.53-9.16-15.84-17.71-.38-1.4-.66-2.82-.97-4.11h-61.55c-.3,1.4-.51,2.61-.82,3.78-2.46,9.28-8.2,15.71-17.39,18.39-3.4,.99-4.38,2.43-3.91,5.57,.14,.94,.15,1.9,.23,3,.91,.08,1.63,.2,2.34,.2,5.54,.02,11.08-.08,16.62,.06,3.49,.09,5.56,3.05,3.69,5.24-.93,1.1-2.93,1.75-4.46,1.79-7.38,.18-14.77,.04-22.16,.12-1.13,.01-3.17,.44-3.23,.87-.34,2.65-.59,5.44-.02,8,.17,.74,3.15,1.19,4.85,1.19,26.1,.07,52.21,.05,78.31,.05,11.08,0,22.16,.03,33.25-.05,1.21,0,3.4-.59,3.47-1.11,.34-2.64,.48-5.44-.14-7.99-.17-.7-3.22-.95-4.96-.96-23.52-.06-47.04-.05-70.55-.03-2.73,0-5.25-.49-5.18-3.75,.07-3.06,2.64-3.44,5.14-3.43,.86,0,1.72,0,2.59,0,20.44,0,40.88,0,61.32,0h4.53Zm21.7,66.45c.47-1.16,.66-1.58,.81-2.01,4.92-13.49,9.82-26.99,14.76-40.48,.81-2.21,1.73-4.86,4.78-3.89,3.39,1.08,2.74,3.72,1.74,6.38-2.97,7.93-5.85,15.9-8.73,23.87-2.15,5.94-4.24,11.89-6.39,17.93,10.38,1.31,14.69-1.67,15.71-10.34-1.29-.28-2.81-.23-3.76-.94-.79-.59-1.49-2.27-1.2-3.12,.41-1.19,1.62-2.3,2.76-3.01,2.07-1.31,5-1.81,6.37-3.58,1.66-2.15,2.07-5.27,2.6-6.76-2.15-1.67-4.53-2.57-5.02-4.09-.96-2.96,1.76-3.83,4.07-4.53,.47-.14,.94-.33,1.42-.41,3.45-.57,4.51-3,4.65-6.06,.3-6.41-.9-12.48-4.3-18.01-2.76-4.49-3.77-4.99-8.64-3.17-8.29,3.1-14.75,8.09-17.57,17.01-1.93,6.09-6.27,11.92-.47,18.27,.5,.55-.16,3.02-1,3.7-.84,.68-2.62,.41-3.93,.22-.7-.1-1.28-.93-2.07-1.55-1.42,3.83-3.06,7.32-3.93,10.99-.47,1.95-.23,4.58,.78,6.24,1.6,2.63,4.13,4.7,6.56,7.34Zm-33.8,94.44c20,0,40.69,0,61.38,0,10.29,0,13.83-3.75,13.78-14.12-.01-2.81-.98-3.56-3.66-3.55-22.05,.08-44.1,.07-66.15,0-2.5,0-3.36,.74-3.52,3.35-.3,4.67-1.16,9.3-1.84,14.32ZM138.12,94.79c2.01,4.17,3.87,8.24,5.97,12.18,.38,.71,1.71,1.28,2.61,1.29,19.33,.07,38.66,.07,57.99,0,.92,0,2.3-.5,2.67-1.19,2.15-4.02,4.07-8.16,6.08-12.28h-75.31Zm-.39,18.69c.03-10.34-8.03-18.61-18.27-18.77-10-.15-18.67,8.36-18.74,18.41-.08,10.41,8.25,18.89,18.56,18.88,10.24,0,18.42-8.22,18.45-18.52Zm76.05-.34c-.06,10.56,8.1,18.88,18.48,18.86,10.16-.02,18.53-8.39,18.54-18.55,.02-10.14-8.3-18.61-18.42-18.74-10.12-.14-18.54,8.2-18.6,18.43Zm-31.99,112.18c0-2.85,.19-5.19-.04-7.47-.54-5.41-4.31-9.25-9.4-9.72-10.37-.96-14.1,6.15-12.88,15.66,.08,.59,1.32,1.45,2.03,1.46,6.61,.11,13.22,.07,20.28,.07Zm7.45-24.59h12.84c-1.13-3.32-3.51-4.77-6.4-4.79-2.89-.02-5.25,1.45-6.44,4.79Z" fill="#fff"/><path d="M226.04,254.95c7.13,0,14.27,.03,21.4-.02,2.73-.02,5.27,.54,5.23,3.73-.04,2.95-2.48,3.52-5.07,3.51-14.64-.03-29.27-.03-43.91,0-2.6,0-5.03-.59-5.05-3.54-.02-3.19,2.54-3.72,5.26-3.7,7.38,.05,14.76,.02,22.14,.02Z" fill="#fff"/><path d="M225.47,274.75c-7.25,0-14.49-.04-21.74,.02-2.58,.02-5.01-.44-5.1-3.43-.1-3.08,2.39-3.57,4.93-3.57,14.74,0,29.48,0,44.22,0,2.55,0,5.02,.5,4.92,3.58-.1,2.99-2.54,3.44-5.11,3.42-7.37-.06-14.74-.02-22.11-.02Z" fill="#fff"/><path d="M225.58,249.32c-7.62,0-15.23,.01-22.85,0-2.4,0-4.49-1.13-3.99-3.59,.28-1.33,2.57-2.25,3.97-3.35,.08-.06,.24-.01,.36-.01,15.11,0,30.22,.02,45.33-.02,2.49,0,4.24,1.03,4.3,3.49,.06,2.59-1.9,3.48-4.27,3.48-7.62,0-15.23,0-22.85,0Z" fill="#fff"/><path d="M148.8,307.93c0,4.06-.04,8.12,.01,12.17,.03,2.47-.91,4.2-3.52,4.17-2.45-.03-3.27-1.76-3.27-4.03,.02-8.24,.03-16.48-.01-24.72-.01-2.44,.87-4.28,3.49-4.18,2.58,.1,3.36,1.98,3.31,4.41-.09,4.06-.02,8.12-.02,12.17Z" fill="#fff"/><path d="M214.61,221.45c3.93,0,7.86,.04,11.78-.01,2.33-.03,3.91,.86,3.94,3.31,.03,2.4-1.48,3.52-3.8,3.53-7.98,.02-15.96,0-23.94,.01-2.33,0-3.97-1.15-3.99-3.41-.02-2.51,1.71-3.52,4.22-3.45,3.93,.1,7.86,.03,11.78,.03Z" fill="#fff"/><path d="M119.39,101.93c6.31,.05,11.51,5.31,11.43,11.57-.08,6.32-5.29,11.4-11.63,11.36-6.44-.05-11.31-5.04-11.28-11.55,.04-6.43,5.07-11.42,11.47-11.37Zm4.41,11.35c-.27-2.72-1.84-4.3-4.52-4.29-2.68,.01-4.32,1.61-4.46,4.36-.13,2.5,2.26,4.88,4.68,4.58,2.61-.32,4.16-1.87,4.3-4.65Z" fill="#fff"/><path d="M243.59,113.49c-.03,6.48-5.01,11.42-11.46,11.37-6.3-.05-11.53-5.32-11.46-11.55,.07-6.29,5.32-11.42,11.63-11.38,6.38,.04,11.32,5.09,11.28,11.56Zm-11.48-4.56c-2.67,.38-4.38,1.73-4.33,4.54,.05,2.77,1.77,4.25,4.39,4.47,2.45,.21,4.74-2.25,4.52-4.73-.24-2.75-1.94-4.07-4.58-4.28Z" fill="#fff"/></g></g><rect x="12.72" y="13.29" width="267.72" height="267.72" rx="24.99" ry="24.99" fill="url(#linear-gradient)"/></g></g></svg>