<?xml version="1.0" encoding="UTF-8"?><svg xmlns="http://www.w3.org/2000/svg" xmlns:xlink="http://www.w3.org/1999/xlink" viewBox="0 0 472.65 483.18"><defs><clipPath id="clippath"><rect width="293.15" height="293.15" rx="24.99" ry="24.99" fill="none"/></clipPath><linearGradient id="linear-gradient" x1="-2845.97" y1="245.94" x2="-2592.94" y2="-7.09" gradientTransform="translate(-2572.88 266.57) rotate(-180)" gradientUnits="userSpaceOnUse"><stop offset=".56" stop-color="#fff" stop-opacity="0"/><stop offset="1" stop-color="#fff" stop-opacity=".7"/></linearGradient></defs><g isolation="isolate"><g id="Layer_2"><g id="Layer_1-2"><g><g clip-path="url(#clippath)"><rect y=".57" width="293.15" height="293.15" rx="24.99" ry="24.99" fill="#00217f"/><circle cx="268.57" cy="276.66" r="203.96" fill="#8724b5"/><text transform="translate(16.76 48.5)" fill="#fff" font-family="Lexend-Bold, Lexend" font-size="36" font-variation-settings="&apos;wght&apos; 700"><tspan x="0" y="0">Geog</tspan><tspan x="96.41" y="0" letter-spacing="-.02em">r</tspan><tspan x="112" y="0">ap</tspan><tspan x="159.44" y="0" letter-spacing="0em">h</tspan><tspan x="182.12" y="0">y</tspan></text><g><circle cx="267.62" cy="278.15" r="205.03" transform="translate(-49.81 497.76) rotate(-80.78)" fill="#5ab1c7"/><path d="M396.71,168.73c2.09,1.13,4.07,2.47,6.25,3.43,2.35,1.04,2,.05,1.82-.48,.16,.22,.33,.44,.49,.66,.06-.39,.1-.69,.75-.88l-.05-.12q-.23-1.36,.72-2.47c-.15,.87,.14,1.75-.07,2.63-.12,.02-.28,.07-.39,.11-.01,0-.03-.01-.04-.02,.3,1.27,.27,1.39,.16,1.81-.11,.02-.27-.01-.36-.07-.01-.01-.03-.02-.04-.03,.64,.84,1.7,1.06,2.48,1.7-.05,.5-.44,3.03-3.54,4.25,3.65,3.06,6.33,8.27,10.04,15.47q-.26-.55-.31-.77s3.42,4.83,3.4,7.43c-.04,.04-.09,.09-.13,.12-1.11-.64-.96-2.07-1.79-2.89-.04,.06-.1,.14-.14,.2,.1,.43,.37,.79,.42,1.24q-.32-.3-.56-.29c.03,.71,.57,1.35,.3,2.1-.37-.09-1.25-.81-.8-1.39-.1-.08-.25-.18-.36-.22-.19,.25-.33,.44,.21,1.74-.39-.11-.54-.12-1.08-.1h-.19c-.62-.01-.72-.04-1.12-.2,.07,.36,.28,1.45,.02,2.88,0,0,0,.01,0,.01-.36,1.63-1.24,.39-1.52-.01-.29-.43-.45-.7-.84-1.35,.08,.45,.17,.9,.25,1.35,.02,.1,.04,.23,.06,.33,.14,.78,.27,1.55,.4,2.33-.73-.54-1.07-.63-1.27-.35-.13,.18-.13,.74-.12,1,0,.9-.02,1.08-.12,1.47-1.19-1.38-2.24-2.11-3.62-2.49,1.15-.07,1.63-.76,2.27-2.29,.57-1.38,.8-1.88,1.5-2.37-1.59-1.96-6.51-.05-7.22,1.81,.46,.16,.58,.22,1.07,.57,2.39,1.97,3.82,5.87,4.11,7.34,.4,2.03-.49,1.72-.74,1.54-1.85-1.42-2.72-3.61-4.2-5.32q-.09-.1-.15-.1c-.05,.09-.07,.12-.1,.61-.22-.59-.34-.8-1.06-1.53-.84-.86-.97-1.36-.65-2.53,.49-1.55,3.18-9.16,8.13-6.3-2.87-5.56-1.62-5.58-.87-5.59,1.49-.03,1.51-6.88-4-12.09,.69,.48,1.5,.78,2.12,1.37q-.34-.53-1.51-1.98s.01,.03-.01,.19c-.17,.17-.29,.29-1.05,0-.07-.03-5.91-2.97-2.56-4.78-.39-.15-.89-.49-1.11-.84-1.02-1.62-1.61-3.47-2.61-5.1-.19-.21-.45-.49-.64-.7ZM186.8,101.26c.59-.09,1.23-.41,2.77-1.19,1.88-.95,2.14-1.05,2.48-.97,.08,.16,0,.55-1.41,1.32,.3,.16,.72,.14,1.87-.1,.89-.19,.99-.2,1.45-.25,.16-.57,.2-.71-.03-1.03-.33-.45-.9-.52-1.33-.82,.82-.03,2.35-.1,5.07-.56,2.16-.36,1.47-1.53,1.46-1.54-.25-.18-.85-.16-1.17-.16-2.19,.14-4.2,.78-4.78,1.09,0,.02-.01,.05-.02,.07-.31,.04-.62,.02-.92,.11-.14,.04-.14,.24-.3,.25,.16,.06,.26,.1,.62,.12-.14,.05-.28,.11-.41,.17-.57-.28-1.11-.08-1.85,.68-.04-.33-.53-.59-.25-.96-.26,.12-1.03,.47-1.67,.22-.08-.03-.21,0-.29,.03-.33,.2-.42,.64-.8,.8q.06-.19,.02-.3c-.28,0-.67,.62-.56,.78,.17,.25,.3,0,.48-.36,.83,.25,1.72-.14,2.54,.22q-3.82,1.47-3.98,1.74c.12,.36,1,.61,1.01,.6Zm-48.84,18.25c1.22-.76,6.77-4.56,6.82-4.6-.06,.06-.13,.13-.19,.19,.61-.09,.76-.11,2.62-1.16h0c1.8-1.15,4.36-1.02,5.52-3.25-.5,.03-.95,.25-1.42,.38,.92-.53,1.82-1.09,2.75-1.58-.36,.37-.76,.68-1.14,1.02,.73-.1,2.57-1.3,2.71-1.48-.17,.07-.4,.19-.56,.28,.56-.33,1.13-.63,1.66-1-.17,.09-.4,.22-.57,.3q.04-.09,2.46-2.27c.27,.06,.9,.21,1.23-.54,.02,.08,.05,.18,.08,.26,.88,.28,1.32-.55,2-.78q-.38,.02-.99,.34c1.55-.98,1.63-.99,2.87-1.24,1.58-.52,2.59-1.92,4.04-2.63-.08,.02-.19,.04-.27,.06,0-.09,.02-.21,.03-.31,.97-.58,2.23-.37,3.11-1.16-.08,0-.18-.01-.26-.02,.32-.18,.71-.25,.98-.52q-.22,0-1.07,.25c3.38-1.78,7.11-2.67,10.62-4.14,.24-.1,.55-.24,.78-.34q-1.32-.35-5.67,1.21c1.32-2.01,4.78-.27,5.57-3.18-.19-.06-.45-.13-.65-.12-.96,.12-2.24,.49-2.79,.71-.07,.03-.14,.07-.21,.1l.11-.04-.04,.02-.16,.07s-.03,.02-.05,.03l.05-.03h0s.02-.02,.02-.02c.08-.04,.18-.09,.25-.13q-1.5,.36-3.1,1.22,.25-.22,.85-.58c-.41,.15-.78,.38-1.18,.55,.08-.04,.17-.1,.25-.14-.2,.09-.46,.21-.66,.3,.2-.11,.47-.25,.67-.35-.48,.23-1.07,.53-1.65,.84-9.4,4.87-18.38,10.45-26.86,16.67-4.78,3.5-9.39,7.22-13.84,11.11,2.01-1.72,5.8-4.92,6.95-5.64-.52,.5-1.12,.91-1.67,1.36Zm258.91,47c-.58-.89-1.13-1.48-3.84-3.92-2.43-2.2-2.9-2.69-3.11-3.3,.02-.05,.06-.12,.08-.17,.36-.08,.56-.12,1.88,.31-.35-.98-.67-1.67-2.24-2.94-2.35-1.91-5.33-2.74-7.76-4.53-2.5-1.84-4.38-4.35-6.85-6.21-.8-.6-1.98-1.32-3.01-1.29-.27,.03-.33,.04-.58,.13,.75,.89,1.95,1.23,2.67,2.17,0,0,0,0,0,.01,3.77,2.41,12.06,11.12,16.04,15.31,3.46,3.63,4.32,4.49,5.1,5.07-.67-.87-1.01-1.43-1.44-2.39q.28,.07,1.19,.7c.89,.62,1.67,1.15,1.87,1.05Zm-184.85-56.92c.05,.13,.1,.25,.63,.41,.1-.09,.23-.23,.3-.34-.05-.08-.13-.18-.19-.24,.04-.1,.13-.21,.21-.28,1.33,2.05,2.88,2.43,4.74,1.17-.47-.96-1.27-1.72-1.69-2.72,1.34-.35,2.57-1.44,2.93-2.59,.72,.34,1.57-.17,3.63-1.38,2.21-1.3,4.81-.98,7.15-1.72,.29-.09,.66-.25,.94-.36-1.61-.26-3.22-.38-4.79-.35-.92,.05-1.34,.1-2.07,.31-.48,.14-.8,.56-1.27,.72-1.65,.56-3.39,.8-5.02,1.43,.28,.39,.15,.54-1,1.1-.05,.03-5.17,3.28-5.09,3.98,.41,.24,.92,.19,1.3,.48-.51,.16-.6,.19-.71,.39Zm184.02,91.44s.05,.07,.08,.1c-.03-.04-.05-.08-.09-.11,0,0,0,0,0,0ZM124.13,146.96q-1.52,1.01-4.36,4.2s-.26,.88,.49,.89c.5,0,1.17-.4,1.45-.57-.3,.24-.46,.36-.68,.52,3.2-1.61,3.85-.87,4.05-.05,.41-1.38,1.83-1.78,2.65-2.76,1.06-1.27,.1-1.18-.42-1.13-.29,.03-.3,.03-.43,0,.6-.71,1.52-1.78,1.32-2.24,.78,.29,2.01-5.24,1.98-5.31-.03-.07-.12-.14-.17-.2,1.8-.76,4.74-3.33,4.85-4.22-.24-.27-.61-.1-2.2,.6q2.6-1.95,3.27-2.63c-.2,.19-.48,.45-.68,.64-2.26,1.69-3.8,2.12-4.22,2.22,.11-.2,.25-.38,.33-.6-.03,0-.07-.01-.1-.02,.84-.62,1.43-1.18,1.9-1.81-.37,0-.6,.21-1.37,.88q-1.14,.96-1.15,1.03c-.72,.59-1.19,1.21-1.27,1.33,.44-.42,.84-.87,1.26-1.3,0,.03-.01,.07-.02,.1,.02,.02,.05,.05,.07,.06q.12-.03,.28-.11c-.81,.76-1.23,1.47-1.23,1.48,.22,.08,.31-.08,.47-.39,0,.03,.02,.07,.03,.09,.14,.01,.23,0,.75-.35-.02,.02-3.04,2.58-3.22,2.75,.01,0,1.76-.98,2.38-1.49q-.44,.46-1.75,1.55c.1-.09,.23-.21,.33-.3q-1.2,.81-1.97,1.66c.35-.24,.56-.4,.92-.7-.2,.2-.72,.73-.92,1.24,.11,0,.35,0,1.86-1.45-1.21,1.33-1.43,1.61-1.47,2.11,.17,.18,.18,.18,.93,.2-.65,.47-1.52,1.43-1.73,1.99,.02,.02,.05,.05,.07,.08,.06-.01,.14-.04,.19-.06-.9,.94-1.25,1.23-2.49,2.05Zm283.17,17.69c0-.13-.13-.5-.41-1.08-.01-.02-.02-.05-.03-.07,0,.02-.01,.05-.01,.07-.02,.15-.06,.42,.03,.71-.05-.03-.11-.06-.16-.08,.16,.18,.57,.67,.58,.45ZM146.35,117.95c-.46,.14-.95-.09-1.4,.1-.61,.25-1,.54-1.77,1.22,.41-.42,.56-.6,.57-.75-.25-.13-1.28,.45-2.7,1.53,2.3-2.04,2.55-2.39,2.71-2.62-.02,0-.05,0-.07,.01-.35,.24-.84,.65-1.46,1.21,.13-.17,.13-.19,.16-.28-.09-.02-.18-.04-1.3,.99,.02-.03,.04-.07,.05-.1-.08-.01-.13-.02-.87,.52,.03,0,.08,0,.11,0,.03,.11-.02,.21-.01,.32,.02,.01,.04,.02,.06,.03-.1,.07-.24,.16-.34,.23-.06,.1-.06,.11-.06,.18,.01,.01,.04,.03,.05,.04-.02,0-1.69,.65-1.66,1.11,.08,.03,.09,.03,.24-.02-2.56,1.87-1.44,2.15-1.43,2.15,.47,.11,2.29-.44,4.07-1.55,.36-.22,.83-.53,1.16-.78,.6-.45,1.08-1.06,1.77-1.39-.03-.02-.07-.04-.1-.05,.07-.18,.19-.51,2.19-2.09Zm249.86,83.28s0,0,0,0c-.03-.03-.05-.07-.08-.1,.03,.04,.06,.07,.09,.11ZM131.67,124.67l-.03,.03-.14,.12c.39-.35,.79-.69,1.19-1.03-.44,.38-.8,.68-1.02,.88Zm118.24-27.07s-.01-.03-.02-.04c.77-.22,1.43-.3,2.73-.39-.95,.11-1.15,.35-1.34,.68,1.42,.47,2.66,1.38,4.15,1.65,1.28,.24,2.02-.25,2.34-.46,.08-.06,.31-.23,.58-.54,0,0,.01-.02,.02-.02q-.07-.06-.46-.19c-.5-.19-.44-.33-.02-.64-1.56,.03-2.19-.3-3-.72-.94-.49-1.69-.72-3.36-.71-.61,.01-.97,.04-1.56,.09,.09,.41,.11,.84-.7,.7,.59,.13,.94,.18,1.5,.23-.64,0-1.03-.02-1.59-.06,.11,.13,.42,.48,.72,.44Zm51.8,5.55q-.11,.04-.21,.03c.5,.07,1.02,.03,1.52,.09,1.75,.22,3.43,.79,5.18,.97,1.14,.11,1.94-.02,2.12-.19-.18-.41-3.12-.87-3.15-.87h-.02s0,0,0,0t0,0h0c-.74-.06-1.44-.28-2.17-.37-1.33,.07-2.38-.97-3.7-.94-.38,.03-.42,.14-.46,.26,.22,.41,.71,.58,.9,1.02Zm-41.92-3.17h.05c2.12-.02,3.49-.51,4.11-.79,.08-.04,.18-.09,.26-.12-.75-.68-2.6-1.32-3.74-1.3-1.46,.08-1.66,1.66-1.19,2.03,.23,.18,.44,.18,.52,.18Zm57.07,3.91s.03-.09,.05-.12c-1.51-.95-2.77-1.32-4.34-1.28-.67,.05-1.12,.13-1.84,.41,.19-.05,.66,.11,1.54,.42,1.66,.57,4.16,1.44,4.6,.57Zm87.1,53.8s0-.1-.07-.2c-.16-.29-.64-.88-.89-.97h0c.03,.17,.33,.6,.54,.85,.11,.13,.36,.42,.42,.33Zm1.72,3.31s.02-.03,0-.06c-.03-.08-.19-.16-.33-.2v.04c.03,.3,.28,.29,.32,.22Zm1.48,5.36s-.03-.06-.04-.08q-.12-.03-.2-.03c-.18,.06-.24,.28-.18,.66-.02-.05-.03-.09-.06-.14,0,.05-.01,.09,.53,1.23,.24-.16,.5-.5-.06-1.64Zm-.95-4.35c.06,.02,.09-.02,.09-.12,0,0,0-.01,0-.02-.13-.14-.29-.3-.37-.29-.07,.04,.15,.38,.27,.42ZM219.01,97c.08,.05,1.05,.25,1.06,.25,.31,.03,.6-.03,.71-.05,.02-.13,.01-.16-.1-.25,.08-.02,.19-.05,.27-.06q.92,.37,2.78-.43,.22,.64,3.51-.48c-.04,.07-.09,.16-.13,.23-.22,.21-.23,.23-.26,.31,.07,.02,.27-.01,.6-.1l.1-.21,.03-.05c.07-.26,.07-.29,.04-.38-.4-.17-.5-.19-1.48-.1,.13-.12,.32-.27,.45-.39-.65-.01-1.24,.32-1.87,.36,0,.03,.05,.3,.66,.26-.38,.13-.77,.2-1.15,.32h-.02c-.22,.02-.56,.04-1.98,.38,.02,.05,.04,.11,.05,.16-.24-.04-.44-.05-.71-.05,.43-.14,.69-.23,1.04-.38-.52-.14-.9-.2-1.55-.22,.32-.04,.84-.17,1.15-.29,.42,.11,1.4,.35,1.5-.06-.02-.04-.07-.09-.11-.1-.27-.08-.57-.02-.84-.14-.71-.32-.79-.3-.88-.29q-.04,.07,.08,.36c-.93,.17-1.81,.58-2.78,.52l-.19,.1c.05,.12,.05,.13,.03,.21-.06,.04-.1,.06-.39-.05,0,.1,0,.11,.04,.25-.02,0-.05,0-.07,0-.3-.07-.64-.13-1.27-.08-.01,.17-.01,.29,.02,.48q1.61-.06,1.67-.04Zm185.56,61.79c-.07-.11-.14-.19-.19-.23h-.03c-.08,0,0,.21,.25,.68,.07-.1,.06-.27-.04-.44Zm-192.41-62.09c.42-.06,1.21-.17,2.09-.1q-.55,.09-.6,.13s.02,.05,.03,.07c-.39,.09-.61,.12-.91,.13,.19,.43,.76,.46,2.18,.13-.1,.04-.23,.09-.33,.13,.14,.05,.26,.05,.41,.03-.12,.15-.36,.43,.24,.36,.34-.03,.89-.2,1.07-.25,.03,0,.08-.02,.11-.03-.42-.18-.81-.21-1.34-.1,.21-.05,.33-.1,.53-.23-.05-.01-.13-.03-.18-.04,.44-.11,.89-.24,1.33-.35-.02-.29-.07-.78-1.59-.75-1.09,.06-2.26,.33-3.5,.81,.23,.05,.35,.07,.46,.06,0,0,0,0-.01,0Zm175.56,345.04c-.68,.37-1.35,.78-2.03,1.14q2.04-1.41,2.12-1.64c-.16,.04-.39,.1-.55,.14-3.67,2.03-7,4.63-10.86,6.33q-5.44,2.4-6.9,3.22c-2.94,1.66-3.24,2.06-3.29,2.33,1.34,.53,16.42-8.02,20.44-10.78,.32-.22,.75-.52,1.06-.74Zm-1.93,1.49c.97-.07,9.48-5.79,12.35-8.17,.04-.03,.1-.08,.14-.12-.65,.21-1.05,.81-1.66,1.07q.2-.29,3.76-3.38c-.55,.42-1.1,.83-1.64,1.27,.25-.23,.5-.47,.75-.7-3.49,2.97-13.58,9.95-13.7,10.03Zm19.09-15.13c-1.69,1.41-3.22,2.99-4.87,4.44,.22-.12,.39-.3,.6-.44-.04,.06-.13,.16-.21,.25,1.63-1.53,3.24-3.08,4.92-4.55-.13,.09-.31,.21-.44,.3Zm-26.31-307.41s-.03-.02-.04-.03c.01,0,.03,.02,.04,.02,0,0,0,0,0,0Zm-.08-.05s.03,.02,.04,.02c-.01,0-.03-.02-.04-.02h0Zm-261.59,30.85c.51-.21,3.28-1.53,7.59-6.8,.44-.54,1.79-2.19,.87-2.16-.06,0-.13,.02-.19,.03-1.69,.55-2.83,2-4.44,2.7-.29,.76-.56,1.09-1.19,1.49,.31,.36-.27,1.05-1.78,2.54-.8,.79-3.24,3.19-.85,2.21ZM372.95,430.59s.02-.01,.03-.02c-.03,.03-.08,.07-.11,.1,.03-.02,.06-.05,.09-.08Zm42.15-25.55c.11-.13,.21-.26,.32-.39h-.01c-.1,.14-.2,.26-.3,.39Zm-14.7,27.33c-.3,.28-.6,.57-.91,.85,.4-.35,.71-.63,.91-.85Zm-30.97,9.65c-.49-.01-.98-.09-1.47-.08-.5,.02-1.54,.07-3.3,1.2-2.04,1.31-3.71,3.06-5.63,4.53,2.31-.4,2.59-.59,5.25-2.37,2.53-1.69,4.53-3.03,5.01-3.23,.04-.02,.1-.03,.14-.05ZM195.32,226.5c.61,.1,.76,.04,.79,0,.07-.09-.18-.21-.42-.2-.23,.02-.32,.12-.37,.21Zm-49.37-32.66s.01,0,.02-.02h0s-.02,.02-.02,.02h0Zm-29.49-12.05v.08c-.06,.31-.17,.64-.54,1.72-.67,1.98-1.8,5.3-.84,4.68,.86-.55,2.45-3.27,3.22-4.94,.95-2.07,.39-2.04,.2-2.03-.11,.01-.47,.1-1.35,.6-.67,.38-.67,.35-.7-.11Zm-22.75,6.42s.04-.05,.06-.08h0s-.04,.05-.06,.08Zm24.66-7.56c.3-.42,1.22-1.7,2.16-3.67,.33-.69,.57-1.26,.65-1.47-.06,.03-.14,.07-.2,.09-1.25,.87-2.48,3.16-2.43,3.31h0c-.42,.91-.46,1.31-.19,1.74Zm280.93,106.27c.1-1.5-.42-2.41-.74-2.96-.04,.07-.09,.17-.13,.25-.36,.83-.95,2.26-.74,2.57,.12-.05,.19-.08,.59-.61-1.72,2.91-3.6,5.88-3.78,6.13h0s-.24,.35-.24,.35c-.59,.97-.9,1.61-1.32,2.72,2.51-1.32,6.12-4.99,6.36-8.46Zm11.58,33.53c.1-.37,.06-.9,.01-1.29-.34,.07-.78,.17-1.12,.24-2.96,.6-5.99,.77-8.93,1.48-.82,.2-1.42,.57-1.79,1.11-.23,.33-.37,.65-.49,.91-.65,1.47-.91,3.05-1.42,4.56-.96,2.87-3.2,5.1-4.06,8.03-.87,2.94-.17,5.99-.65,8.95,.99-.32,1.73-.33,2.56-.04,.01-.08,1.63-8.14,2.97-9.46,.61,.86,.7,1,.37,3.67-.47,3.75,1.55,3.04,1.96,2.86-.16,.39-.66,1.57-.51,2.99,.07,.04,.16,.09,.23,.13,1.18-.56,2.2-3.6,2.16-4.74-.46,.15-.73,.31-1.14,.68,.49-3.07-.85-5.96-.93-8.97,1.9,2.41,2.98-3.29,5.25-3.87h0c-2.47-.46-4.99,.99-7.45-.18-.98-.46-.56-1.23,1.44-2.67,2.17-1.56,3.53-1.39,6.23-1.05,2.36,.3,2.53,.12,3.52-.84-.11,.16-.27,.36-.39,.51q2-2.36,2.19-3.03Zm4.4,14.77c-1.1,.06-2.69,.68-1.38,1.82,.18,.15,.39,.29,.53,.38-.08,.06-.08,.06-.1,.11,0,0,.02,.01,.03,.02,.03-.02,.06-.03,.11-.1,1.9,1.04,3.84,1.13,4.42,.21,.41-.66-.16-1.25-.26-1.31,.02,.24,.24,.49,.35,.7-1.05-1.77-3.26-1.83-3.7-1.82Zm-10.68-53.17h0s0-.04-.03-.04c0,.01,0,.04,.03,.04Zm.91,45.72s0,0,0,0c-.06-.05-.11-.06-.15-.06,.05,.01,.1,.03,.14,.06Zm-1.24-40.49c.47,1.03,2.36-.68,2.38-.69,.33-.31,.52-.62,.55-.93,.05-.45-.14-.66-.68-1.27-1.18-1.34-1.46-1.75-1.67-2.11-.08,.04-.12,0-.24-.23,0,.02,0,.04,0,.06,0,.21-.03,.4-.15,1.16-.19,1.24-.51,3.32-.19,4.01Zm-6.09,66.01l.97,.28s-.05,.11-.07,.16c-.32,.09-.74,.18-1.07,.24q.19,.21,.88,.47l.09-.07c.68-.19,1.31-.52,1.99-.73-.04,.1-.1,.23-.14,.33,.25-.05,.62-.09,.83-.24,.26-.19,.28-.53,.52-.73,.04-.04,.11-.06,.16-.08-.05-.02-.1-.04-.15-.05h-.03c-.3-.05-.59,.13-.89,.04-.66,.06-.97,.12-1.35,.25-.76-.86-1.85-.05-1.86-.04-1.93-.56-4.98-.33-6.56-.04-1.03,.19-1.91,.85-2.96,1-.77,.11-1.49-.19-2.24-.26,.18,.26,.29,.39,.63,.51-.65,.47-.92,.11-1.42-.55-1.19-.02-1.66,.18-1.98,.31-.37-1.15-.96-1.43-1.23-1.42-1.07,.34-.35,1.26,.73,2.65l.07-.04c1.75,.48,3.5-.33,5.26-.03-.52-1.31,6.11-.57,6.18-.56-.03,.05-.07,.12-.11,.17,1.26-.49,2.43-1.22,3.75-1.58Zm-32.85-1.84h.06c-3.66-.76-5.95-1.53-9.46-3.14,1.85-.56,3.21-2.02,4.98-2.73,2.97-.44,4.78,2.63,7.65,2.53,2.46-.09,4.79-1.23,7.3-.97,.17,.02,.41,.04,.58,.07,1.68,.34,1.89,1.16,2.07,1.88-.95,.65-2.02,1.18-3.42,.63,.72,1.15,.85,1.36,3.08,1.7,3.41,.52,3.04,1.85,2.85,2.24-.04,.07-.11,.16-.16,.23-.43,.48-2.66,1.37-2.66-.84-.41,1.55-3.56,.75-12.91-1.61h.03Zm9.66-1.79s0,0,0,.01h0s0,0,0-.01Zm-9.42,1.79c.14,0,.39,0,.44-.03,0,0,0,0,0,0h0s-.6-.08-.65-.05c.01,.01,.03,.02,.2,.09Zm41.22,1.68c.17-.38-.19-.34-.62-.29-5.28,1.23-8.59,5.73-9.43,7.35,.31-.1,1.04-.33,3.4-1.61h0c2.15-1.19,6.16-4.37,6.65-5.45Zm-21.3-15.22s1.99-.63,.38,1.35c.48-.54,1.05-1.32,1.38-1.96,.93-1.84,.7-3.99,1.58-5.85,1.08-2.26,3.13-3.87,4.14-6.18,.71-1.61,.65-2.32,.55-3.49,1.3,1.62,1.85,.69,2.03,.21,.44-1.19,.3-3.57-2.86-8.15q.43,.28,.71,.4,.02-.1-.99-1.77c.43,.04,1.8,.04,1.43-1.43,.03,.05,.08,.12,.12,.17,.05-.02,.13-.06,.18-.08-.02-.19-.05-.58-.3-1.39,1.08,.98,1.77-.28,1.7-1.08-.02-.24-.15-.54-.25-.76h0s.04-.04,.04-.04c.35-.39,3.34-3.81,1.67-3.85-.59-.01-1.68,.48-2.2,.72q.43-.28,.57-.53-.34-.15-1.33-.05c1.05-2.35-.73-3.49-1.18-3.45-.33,.11-.39,.18-.62,.46,0-.06,0-.15,0-.21-.03,0-3.18,.17-4.42,8.03-.07-.72-.15-.86-.6-1.32-.59,1.15-.85,1.88-1.14,3.13-1.05-.24-.66-1.71-1.69-1.97-1.19,3.31-6.59,7.84-7.34,6.68-.03-.05-.05-.13-.07-.19-.73,1.72-.99,2.86-1.07,4.68-1.06-.84-3.45-.43-3.31-2.33-1.86,1.84-2.64,2.6-2.35,6.4,0,.12,1.69,12.44,3.78,12.57,.64,.04,1.23-.99,1.52-1.48,.36,2.09,4.87,2.3,6.19,1.61-.7,2.9,2.39,1.77,3.75,1.15Zm-7.18-93.63c-.05,.07-.1,.16-.15,.23,.07-.07,.1-.13,.16-.23,0,0,0,0,0,0,0,0,0,0,0,0Zm16.34-7.13c.87-1.56,1.16-2.16,1-2.8-.02-.04-.05-.1-.07-.15,.16,.29,.38,.68,.43,1.56,.06,1.14-.23,2.56-.49,3.81-.48,2.34-.71,3.62-.32,4.82q-.66-.82-1.32-1.31s.07,.04,.1,.06q-.21-.18-.25-.25c.08,.03,.16,.08,.24,.13-1.31-1.62-.82-3.19,.67-5.88Zm-.23,6.31l-.35-.34s0,.03,0,.04l.26,.22,.09,.08Zm.02-.12l-.12-.1h-.01l.13,.1Zm1.43,1.89s.02,.01,.03,.02c-.23-.28-.44-.58-.68-.85,0,.01,0,.02,.01,.03,.1,.23,.27,.56,.64,.8Zm-39.5,102.62s0,0,.01-.01c-.13-.16-.21-.24-.26-.24-.01,0-.03,0-.03,.04,0,.07,.13,.35,.28,.21Zm-23.16-42.4s0,0,0,0c0,0-.01,0-.02,0h.01Zm24.55,14.97h0s0,0,.01,0c0,0,0,0-.01,0Zm-24.31-54.6c-.12-.2-.29-.46-.42-.66q-3.55,2.29-4.55,.98c-1.41-1.85-1.8-4.68-1.99-6.04-.8-5.82-5.57-9.24-8.34-13.87-.33-.54-.72-1.29-1.05-1.84-.32-.53-.84-1.19-1.2-1.7-.49,.05-1.16,.1-1.65,.13q-.31,2.41-1.27,3.51c-.28-.4-.61-.97-.83-1.4-.24,.38-.65,.84-1.03,1.09-.46-.14-1.1-.22-1.57-.19-.16,.2-.37,.47-.53,.68-.16-.16-.37-.38-.52-.53-.19,.12-.44,.28-.63,.4-.32-.32-.56-.93-.61-1.39-3.73,8.6-13.62,11.97-17.4,20.53-3.65,8.26-1.21,17.77-5.32,25.93-.61,1.21-1.4,3.02-2.56,3.71-4.73,2.84-26.23-35.94-19.51-48.82-.21-.15-.5-.35-.71-.51-.05-.45-.18-1.05-.34-1.48-.22-.06-.52-.14-.74-.2,.13,.28,.36,.63,.43,.93,.6,2.38-2.56,4.82-4.43,4.54-3.44-.52-2.82-4.59-5.24-5.99,2.4-.27,2.7-1,2.98-1.7-2.08,.11-3.83-.25-6.65-2.36-4.3-3.63-4.89-5.86-5.08-6.59-7.76-4.15-16.59,2.7-24.27-2.36-.75-.5-1.74-1.2-2.52-1.66-3.61-2.14-7.83,.2-11.49-1.56-4.62-2.22-4.17-8.89-9.34-10.62-.3-.1-.74-.07-1.06-.1,0,.01-1.12,1.33-2.95,2.55h.02c1.81,.44,2.08,.86,2.85,4.43l5.51,11.81c3.01,3.35,14.06,3.06,14.58-5.97,2.1,2.23,.39,5.49,2.11,7.83,1.72,2.34,5.29,1.77,6.86,4.35,.49,.8,.57,2.19,.39,3.11-.6,3-4.82,11.12-16.5,20.36-.23,.18-22.92,18.03-27.95,13.2l-18.8-49.31c-.21-.56-.5-1.31-.7-1.88-1.22-3.6-.93-5.72-.6-8.17-2.32,3.1-2.28,4.17-2.19,6.3-2.27-3.11-3.01-4.88-3.28-7.89-2.33,4.03-2.55,7.04,2.1,15.29q3.51,6.21,8.77,25.12c2.24,8.05,4.62,12.35,8.49,15.34,1.82,1.41,5.21,4.04,5.95,5.81,.96,2.3-.07,3.12-1.94,4.61q9.58,3.61,11.97,2.9,12.48-3.73,12.6-3.07c.1,.54,2.19,13.61-17.63,38.47-19.62,24.61-5.07,38.33-4.91,38.44-.03,.3-.08,.7-.11,1,.33,4.81,3.47,8.85,3.73,13.68,.32,6.05-6.54,7.14-8.17,11.84-2.11,6.06,5.37,9.65,3.98,15.53-.52,2.19-2.34,3.54-3.31,4.26,2.89,2.74,5.62,5.33,2,14.93-3.51,9.3-11.64,6.97-11.71,6.93-1.58-.71-20.45-20.77-21.25-21.62-5.9-6.28-18.24-24.95-18.3-25.07-3.33-6.42-2.45-13.94-5.34-20.47l-.3-.59c-.07-.12-7.41-12.41-5.91-15.44-4.79-2.36-14.41-14.08-10.71-20.65-4.14-4.48,.19-11.71-5.12-15.81-.2,.2-.48,.46-.68,.66-.27-.09-.63-.22-.9-.31-.33,.4-.99,.78-1.5,.85q-7.4-7.42-9.49-5.86c-9.92,7.37-11.14,4.52-13.16-.19-.05-.11-4.76-13.66-6-32.56-.51-7.71,2.6-15.05,2.36-22.74-.04,.28-.1,.66-.14,.95,1.14-16.24,18.58-44.75,18.75-45.01,2.68-3.89,3.89-5.38,4.65-5.71,1.07-.45,1.79,.49,2.7,.67,.83,.17,1.16,.04,4.45-2.22,3-2.06,4.16-2.67,5.95-3.12q.76-.19,8.5-.76c1.73-.05,2.88-.08,1.25,3.55-1.13,2.53-3.11,4.68-3.44,7.58,.76,5.3,13.41,15.28,15.76,7.67,1.09-3.52,2.42-4.27,3.34-4.28,.4,0,.93-.05,1.32,.02,3.82,.72,6.13,4.27,9.82,5.24,3.59,.94,6.72-2.02,10.3-1.23,.25,.54,.68,1.23,1.06,1.69,5.28-.64,7.56-5.34,9.4-9.11,3.52-7.57,2.3-9.12,1.84-9.41,0,0-8.63,.24-10.48,.36-3.69,.23-5.8-.47-6.49-.7,.12-.22,.28-.52,.4-.74-.54-.16-1.29-.26-1.85-.26,.26-1.42,.1-2.91,.77-4.26-2.29-2.46,.97-4.68,.66-7.09-1.59-1.08-2.97-1.5-4.92-.24-.05,.57,.09,1.36,.33,1.89-.52,.01-1.21,.1-1.72,.23-.04,.26-.1,.61-.14,.87-.24-.58-.64-1.33-1-1.85-.62,2.66,1.38,4.99,.98,7.62-.15-.22-.36-.52-.52-.75,0,.48-.26,1.14-.6,1.49-.38-.3-1.07-.5-1.55-.44,.17,.23,.41,.54,.58,.77-.4,.36-.96,.83-1.39,1.16-.04,.62-.12,1.46-.19,2.08-.23,.15-.54,.35-.77,.49-3.41-2.28-1.34-4.91-.67-5.78-.56-.04-1.71-.12-2.03-1.75-.38-1.94,.25-4.97,.26-5,.7-3.16-1.53-5.65-1.97-8.56-.12-.76-.64-1.69-.72-2.45-.07-.68,.21-1.64,.59-2.21-.12-.25-.28-.58-.4-.83-.24,.09-.56,.2-.8,.29-.24-.12-.55-.29-.79-.41-2.52,1.82-3.47,2.5-3.1,6.15,.38,3.73,4.09,5.82,4.69,9.45-1.19,.46-2.3-.33-3.46-.26l-.04,.04s-.35,4.69-2.5,7.2c-1.79-.22-2.95,1.55-4.7,1.46-1.42-2.49,3.24-2.47,4.44-4.15,3.74-5.23-1.78-14.68-1.84-14.77-1.89-3-5.01,.02-7.51-.05-.01,0-.02,0-.63,.03-.05,.01-8.16,6.53-12.4,13.88-2.83,4.92-5.79,7.76-9.05,8.7-1.18-.85-1.04-2.38-1.76-3.47-.26,.07-.6,.16-.85,.23q1.68-3.79,2.51-5.41h0c-.05,.07-.13,.16-.18,.23q6.55-13.85,12.08-13.63c2.9,.12,10.17-8.76,7.37-13.68,1.66-1.03,1.74-1.06,4.29-1.72,1.65-4.16,19.28-13.93,19.44-13.98,.18,.17,.43,.41,.61,.58,1.94-2.09,3.06-4.76,4.98-6.86,.32-.32,.77-.72,1.11-1.02l.09-.04c1.49-1.24,2.11-1.33,2.96-1.45-1.47,1.58-2.5,3.57-4.38,4.79,.29-.02,.67-.05,.96-.08q-.94,1.45-2.12,1.56c.12-.28,.27-.65,.39-.92-.97,1.57-.9,1.69-.39,2.62,0,0,1.55-.18,3.68-.34-.21,.14-.5,.34-.71,.48,.13,.24,.31,.56,.45,.81,.08,0,8.09-.73,9.79-1.84,2.53-3.77,4.69-6.23,6.41-7.32,.45,.25,.96,.76,1.24,1.19,2.87-.33,2.2-3.46,3.75-4.83q.99-.88,8.96-1.36c-.09-.32-.2-.74-.29-1.06-.27-.14-.64-.33-.91-.48-.03-.18-.08-.42-.12-.6q-7.13,1.27-8.45,.81,2.15-3.28,10.35-9.6c-3.32-2.36-4.24,.47-4.55,1.4-11.12,4.3-10.56,7.67-10.29,9.29q-11.9,10.36-14.81,10.55c.11-.3,.25-.71,.35-1.02q-2.4,2.47-3.1,3c-.24-.11-.55-.25-.79-.36q1.5-.56,1.74-2.36c3.31,.64,5.43-5.98,6.33-8.82-2.47,2-3.54,2.58-5.49,3.31-.21-.14-.49-.34-.7-.48,.15-.91,.76-1.68,.78-2.62,2.04-1.89,3.2-4.65,5.9-5.87,1.79-.84,2.02-.95,3.55-1.69,4.39-2.16,8.31-5.09,12.54-7.52l.09-.02c1.92-1.23,2.38-1.53,2.78-1.9,0,0,0,0,0,0,0,0,0,0,0,0,.12-.12,.24-.24,.4-.4-.59,.16-1.4,.28-2,.32,1.56-.94,3.33-1.45,4.94-2.28-.17,.2-.39,.46-.56,.65,2.06-.16,3.58-1.64,5.48-2.2-.01,.25-.03,.58-.04,.83q2.09-.55,2.44-.86c.28,.05,.66,.11,.95,.16,.77-1.03,.91-1.22,2.78-1.87,.24,.14,.55,.32,.78,.45-.5,.31-1.16,.76-1.63,1.11,1.74-.83,3.5-1.11,4.25-1.23-.21,.15-.48,.35-.69,.5,.3-.09,.71-.22,1.01-.31,.26,.15,.6,.35,.86,.5-.59,.2-1.38,.47-1.98,.68q2.79,.18,3.13,.23c.05,.25,.12,.57,.16,.82,4.68,1.01,6.44,1.39,6.93,2.57,.66,1.58-2.17,3.51-3.49,3.78-2.52,.5-4.39-1.46-6.7-1.75q1.48,5.94,3.12,5.53c-.12-.52-.4-1.2-.67-1.67,3.41-.11,5.95-3.01,9.42-2.9,.16,.21,.38,.48,.54,.69q1.3-2.91,1.56-3.91c-.13-.22-.31-.51-.45-.73,2.26-1.17,3.44-.71,3.5,1.4-1.98,.08-2.36,.14-2.65,1.67,4.65,.38,7.91-3.97,12.54-3.65-.46,.33-1.05,.8-1.49,1.17,6.94-.34,7.96-.87,9.25-1.55q-.08-.11-2.63-2.04,11.44,3.42,11.89,3.28c-1.42-1.5-2.02-2.89-1.76-4.14,.4-1.99,2.98-2.15,3.44-4.09,.54,.04,1.25,.2,1.76,.39h0s0,0,.15,0c.25,.08,.58,.2,.83,.28,1.19,2.56,.71,5.54,2.03,8.06-.71,1.87-.79,2.07-3.29,3.13,5.87-.4,5.23-2.68,4.89-3.91,2.5-1.29,3.8,1.3,5.75,1.78h.02c-2.7-2.33-6.44-3.37-8.32-6.72q1.28-.85,1.64-2.2c.21,.15,.5,.36,.71,.51,.02,.66,.14,1.54,.27,2.19q.54,.27,3.73,.47-.31-.45-2.61-1.6c.25,.06,.58,.14,.83,.2,.2-.16,.46-.37,.65-.53-.21-.14-.5-.32-.71-.46,.02,0,3.97,.89,6.44,.99-1.16-1.61-1.81-2-3.84-2.33h0s0,0,.38-.17c2.22-.56,4.59,.08,6.77-.82-.24-.1-.57-.24-.81-.34-.47-2.29,.72-2.27,5.72-2.19,.36-.38,1.02-.72,1.53-.83,0,0,1.41,.41,4.89,.24-.21-.17-.5-.38-.71-.55,.23,0,.54,0,.77,0q.88-1.15,2.06-1.4c10.06-.21,18.17,7.3,28.22,7.13,.14-.2,.33-.47,.46-.67-.07-.25-.17-.58-.25-.83,4.95,1.23,9.22,5.03,14.79,3.9-.08-.28-.19-.66-.28-.95,2.51-.81,4.83,.46,7.24,.67,0,0,0,0-.56-.13-.18-.16-.43-.37-.61-.53q.93-.04,2.52,.13c-.59-.25-1.37-.58-1.96-.84-.09-.24-.21-.55-.29-.79,9.29-.78,9.94-.26,12.34,1.67,4.21,3.38,9.1,1.06,13.64,1.63,4,.5,8.04,.55,12.04,1.05,.5,.06,1.12,.36,1.54,.63-.23-.07-.55-.17-.78-.24,3.3,1.2,3.83,1.29,5.4,1.55q-3.58-1.5-4.01-2.37c7.87-.43,27.06,4.84,30.19,8.29-.26,0-.61,0-.87,0,.38,.18,2.36,1.13,4.01,2.4-4.59,2.4-7.13-2.34-10.82-3.09q1.86,1.24,2.51,1.72c-.13,.2-.31,.47-.45,.68,3.19,1.69,6.63,2.88,9.6,4.99-1.06-.4-1.26-.47-2.77-.6,.18,.33,.43,.78,.61,1.11-.17,.21-.4,.49-.57,.7,1,.9,1.21,1.09,2.31,2.99-.12,.22-.27,.5-.39,.72-3.94-.87-4.9-.63-5.74-.41,.33,2.09,5.78,5.19,5.84,5.22,.05,.03,6.28,3.76,9.48,7.47-.03,.31-.07,.72-.11,1.03q.79,.96,3.02,3.16h0s0,0-.37,.15c.51,1.93,1.93,3.33,2.86,5.02,.18,.2,.37,1.18,.54,2.05-.19-.21-.46-.49-.65-.7l-.03-.03c-.12-.28,.06-.71,.13-1.01-6.29-6.8-14.65-10.99-21.51-17.06h.04c.17-.26,.4-.6,.57-.86-2.65-7.21-7.6-9.48-9.01-9.46,1.47,1.08,1.86,1.34,3.22,2.16-.25,.01-.58,.03-.82,.04,.16,.62,.48,1.42,.75,2-4.25-2.88-4.71-2.99-6.63-3.45-.16,.18-.38,.42-.54,.6q.19,1.48,5.71,6.01c-1.89,2.63-4.04,.72-4.45,.32,.2-.15,.46-.35,.65-.5h0s0,0-.11-.06c-.48-.07-1.12-.12-1.6-.13h-.26s-.03,0-.57,0c-.58-.02-1.35-.09-1.92-.18,.03,.02,.07,.06,.1,.08-2.57,.68-5.34-2.18-7.79,.48-1.95,2.12-2.11,12.36,7.02,12.54q-2.66-2.4-2.97-3.23s3.55,2.21,4.18,4.03c.4-.23,.96-.49,1.4-.63-.39-.35-.81-.93-.98-1.42,2.06,0,5.02,.59,7.45,3.32-.24-.04-.56-.08-.8-.12,13.96,8.3,17.49,24.02,15.31,28.71-.28,.1-.65,.23-.93,.33q-1.05-.51-2.17-1.74c-.16,.18-.37,.42-.53,.6-.13-.2-.3-.48-.42-.68,.25,.57,.42,1.41,.38,2.03-.26-.04-.6-.09-.85-.13,3.56,3.05,.26,7.72,2.6,11.06,2.06,2.94,6.13,3.63,7.83,6.99q.67,1.33,1.67,5.97c-.47,.07-1.08,.23-1.52,.41,0,.23-.01,.54-.01,.77-4.61,1.77-6.46-6.99-6.31-7.82,.19,.15,.45,.36,.64,.51-.22-1.35-.36-1.74-2.46-2.82l.09-.07-.21-.02s.07,.05,.09,.07c-1.52-.53-3.16-.65-4.65-1.3-.13-.49-.08-1.24,.17-1.69-1.87-.89-2.66-3.39-5.12-3.38-2.27,.01-1.12,3.47-3.39,3.42-.25,0-.56-.17-.8-.24-.24-1.9-.47-1.97-1.44-2.27,.16-.28,.48-.61,.52-.92,.09-.67-1.04-3.67-3.13-2.82-.07,.03-6.04,4.14-3.18,7.32,3.53,3.92,8.77,1.26,12.78,3.33-.4,2.09-2.74,3.36-2.44,5.74,.11,.92,.2,1.65,3.85,5.67,3.16,3.36,5.65,5.67,8.09,7.5-.19,.13-.43,.3-.62,.43-1.25-.57-2.03-1.88-3.44-2.2,.13,.06,3.28,1.43,3.68,5.5-.15,.16-.35,.38-.5,.55q3.48,.75,4.15,3.3c-.07,.22-.32,.43-.46,.62,.88,1.9,.86,2.09,.69,3.35-.24,.03-.56,.08-.8,.11-.38,1.16-.88,6.65,.12,8.92h0s0,0,.25-.25c-.48,3.06-.56,3.53-2.88,5.82-2.54,2.49-6.13,3.35-8.79,5.65-.26-.88-.36-1.21-1.45-1.92,.85,1.74,1.01,2.05-1.06,4.71-.05-.05-4.86-3.82-5.9,4.75,1.75,1.45,2.49,2.79,1.67,6.13-.79,2.5-3.25,3.04-4.64,3.15,.28-.51,.64-1.19,.9-1.71q.31-6.77,1.39-7.45c0-.97,0-3.25-1.46-3.92-.8-.36-9.7,.43-9.1,5.45,1.12,9.37,11.22,13.89,12.53,23.16,.46,3.3-.88,14.66-5.81,11.01-.15,2.45-2.42,8.88-5.72,7.14,.33-.53,.77-1.23,1.1-1.75-1.81-7.28-9.94-9.64-12.63-16.23-5.78,3.87-3.94,13.23-3.71,14.29,.93,4.32,4.79,6.55,7.05,9.93,3.88,5.78,2.67,13,5.39,19.1,.13,.29,.55,.48,.79,.69-5.73,1.06-7.83-3.64-10.1-13.88-1.91-8.62-2.86-11.41-6.02-8.91-.77-2.9-1.08-4.1-.42-9.25,1.76-13.59-4.29-23.64-6.19-26.4,.08,3.1-.58,3.4-1.58,3.84Zm-141.21-92.85q.57,.25,1.28-.03c-1.91,2.93-1.51,4.29,2.15,7.25,2.29,1.86,2.83,2.53,3.04,3.73-2.57-.39-3.8,4.26-3.61,5.83,.31,2.52,2.55,3.73,4.36,4.71,.53,.28,.55,.37,.6,.57h.07l-.03,.07c2.55,1.53,4.67-1.06,7.1-.72,.01,0,.03,0,.05,0-.12-9.04-.19-14.49-4.06-18.28-2.72-2.66-2.81-3.28-2.97-4.3,.32-.42,1.06-.68,1.58-.78q-.65-1.43,3.7-2.32c-.68-.53-.79-.68-.46-2.17,.23-1.05,.59-2.63-2.67-2.78-3.56-.17-4.83,3.78-7.94,4.42-.43-.02-.7-.16-.98-.52-.03,1.85-1.6,3.36-1.19,5.31Zm-23.86-6.57c-.77,1.34,.78,1.6,4.92,2.31,.36-.94,.96-2.52,2.08-2.1-.02-.51-.02-.59-.58-.88-.52-.26-.54-.35-.52-.9,.96,.14,1.92-.14,2.93-.85,.11-.08,.25-.19,.36-.27-2.04-1.07-5.81,.25-8.47,2.11q.16-.14,.2-.21s-.56,.4-.82,.68c.08-.07,.2-.17,.28-.24l-.29,.26-.03,.02-.08,.06,.02,.02Zm4.63,15.69c3.4,.3,5.24-1.87,5.73-2.54,1.79-2.48-1.66-6.73-6.02-9.41-3.11-1.91-6.23,1.59-9.34-.01q-.17-.67,2.61-3.09c-2.3-1.25-3.84-1.93-5.96-.89l-.28-.32,.16,.27,.08,.06c-1.99,1.07-3.3,3.36-4.81,6.01-1.75,3.07-2.42,3.62-4.02,4.94,.63,.46,.86,.63,1.37,1.64,.43,.85,1.08,2.14,1.77,2.29,3.88,.89,6.58-3.32,10.46-2.44,2.96,.67,5.12,3.22,8.25,3.5Zm118.99,112.11c-.11,.02-.24,.14-.5,.43,.25,.57,.33,.62,.35,.57,.01-.05,0-.17-.03-.26,.03-.01,.07-.03,.1-.04l.06-.06c.09-.12,.14-.25,.16-.39,0-.07,0-.25-.13-.24Zm65.79,26.22s-.01,0-.02,0c0,0,0,0,.01,0,0,0,0,0,.01,0Zm93.25,19.93s-.05,.03-.05,.03c.95-3.28,.7-6.47-.17-6.37-.21,.07-.35,.2-.61,.56,.04,.18,.05,.33,.07,.76-.02-.03-.07-.06-.11-.07-.18,.12-.23,.3-.24,.4q.11,0,.32-.18c.11,1-.13,4.15-.13,4.16-.07,.19-.33,.34-.44,.51-.55,.88-.92,1.86-1.57,2.68-.39,.49-.6,.43-.76,.3-.64-.5-.97-.75-1.97,.23q-.16,.16-.55,2.24c.12,.07,2.96,1.51,5.24-5.14-.03,1.01-.01,1.33,.1,1.5,.02,0,.06-.01,.08-.02v.06c.37-.39,.47-.63,.62-1.05l.15-.38,.03-.15-.07,.05s.04-.09,.05-.14Zm-159.51-45.38c.2,3.85,.06,6.67-.41,8.36-1.13,4.08-3.69,.34-3.71,.3-1.1-1.92-.61-4.19-.04-6.82,.6-2.77,.9-4.56-.04-6.06-.15-.02-.5-.11-.58-.6l.23,.14s-.08-.1-.11-.14c.19-.15,.32-.2,.59-.22,.28,0,1.74,.06,3.5,2.23,.46,.56,1.12,1.63,.49,2.47-.03,.04-.05,.07,.08,.34Zm-2.96-3.94c-.4-.49-.62-.23-.63-.23,0,0-.1,.27,.25,.29,.04,0,.15,0,.35-.05,0,0,.02,0,.03,0Zm146.59,39.96c-3.76,.06-4.12,4.88-7.55,5.41-1.39,.22-.59-4.1-.58-4.15-.02,.06-.06,.14-.08,.2,.45-4,.65-5.83-2.03-5.56-1.16,.32-2.21,.86-3.51,2.46,.21-1.25-.21-1.54-.39-1.66-.23,.09-.33,.12-.61,.6,1.6,2.74,2.98,5.1,5.55,4.38-.95,1.23-2.6,1.12-3.76,1.94,0,0,.01,0,.02,0,1.68,1.44-.43,3.24,.45,4.75,.33,.03,.57,.05,1.84-2.46-.12,1.14-.19,1.77,.39,2.6,.67,.95,1.9,1.06,2.69,1.81,1.25,1.18,1.26,1.33,1.55,9.28-.18-.41-.7-1.67-3.29,3.33,1.33-.59,2.82-.54,4.15-1.13-1.35,3.85,1.46,3.68,1.69,3.56,.27-.14,2.66-2.01,2.27-2.92-.05-.01-.13-.03-.18-.04h0q1.28-.63,1.55-.89c0-.07-.01-.17-.01-.24l.07,.18c.3-.39,.51-.64,.82-1.56,.32,1.19,1.59,1.78,1.89,2.99,.47,1.92-.56,3.91,.27,5.82,1.02,2.33,2.2,1.19,2.21,1.18,.42-.46,.48-1.38,.58-1.99,.36-2.27-.69-4.46-.38-6.73,.32-2.34,1.89-4.27,2.2-6.62,.09-.67,.01-1.58-.11-2.25-.02-.12-3.34-12.35-7.71-12.27Zm-79.65,13.94q-.21-.57-.28-.8v-.02s0,0,.02,0c.73-.36,1.6-.07,2.3-.53,.75-.48,1.68-1.39,1.97-2.23,1.14-3.28,.09-6.48-.46-8.2,2.07,3.53,2.57,4.37,4.58,3.25-.71-.71-.22-1.42,.07-1.52,.13,.08,.33,.2,.44,.11l-.35-.36,.12-.02c-.05-.04-.12-.11-.18-.15h-.02v-.02q-3.9-3.74-5.35-2.75c-1.23-2.21-2.85-4.2-3.76-6.59-.53-1.38-.22-2.93-.9-4.28-.48-.97-.99-1.14-1.99-1.48-.3,.52-.32,.63-.27,1.1-.5-.65-.84-.97-1.44-1.37q.41,.17,.72,.1c.4-1.43-1.64-3.1-1.66-3.12-1.63-1.32-3.66-2.02-5.28-3.37-2.06-1.71-3.41-4.13-5.63-5.68-.76-.53-2.34-1.62-4.4-1.6-.18,0-.37,.02-.55,.04,3.14,.63,8.02,10.72,14.38,25.68,4.37,10.29,6.37,14.79,7.93,13.8Zm66.59-10.28s.06-.04,.09-.06h0s-.06,.04-.09,.06Zm8.26,26.65c-4.81,6.19-6.71,14.19-12.37,19.85-3.27,3.27-4.09-3.34-4.09-3.41q-.12-1.98,5.75-12.88-.37,.38-1.47,1.44c.02-.72,.46-1.32,.52-2.03q-.71,1.56-6.09-1.8-2.08,3.99-3.13,4.27c-2.26,.6-5.39,3.17-6.75,8.48-1.04-.55-1.18-.58-2.68,0,.2-1.92-1.95-2.44-2.37-3.99-.29,.35-5.83,6.01-8.59,7.12h-.01c-.13,1.21-.22,1.53-.79,2.81-.04-.13-.1-.3-.15-.43q-.43,.42-.86,1.41c0-.62-.02-1.27,.46-3.28-1.36,.84-2.43,1.51-5.26,4.81-2.75,3.22-3.67,3.9-5.11,4.71-2.45,1.37-5.29,1.61-7.81,2.75-3.18,1.43-5.45,4.56-9.21,4.91-.03-.37,.09-.89,.27-1.21-5.43,2.79-7.05,8.96-7.74,11.59q-.36,1.36-.8,1.81c.03-.27,0-.65-.09-.91-3.46,4.03-2.21,9.81-5.23,14-1.85,2.57-4.88,4.03-6.43,6.88-.11,.2-.05,.52-.08,.74,1.6,1.31,6.08-.47,9.36-1.77,.21-.08,21.71-7.98,25.66-5.05q.07,.73-3.79,7.35c2.91-2,6.08-3.62,8.8-5.9-1.77,3.45-5.58,4.28-8.32,6.48,1.15-.15,1.54-.44,4.64-2.67q-.12,.15-3.63,3.19s.04-.03,.05-.04c.13,.05,.3,.11,.43,.16-.88,2.69-4.4,3.5-4.73,6.59q.43,.36,5.82-1.36-.69,.66-1.36,.95c.15,0,.35,.01,.5,.02q-.21,.6-1.06,1.58c22.83-10.7,36.58-26.03,41.44-32.12-.25,.29-.58,.68-.83,.98,.48-.58,.96-1.17,1.44-1.76-.09,.11-.22,.26-.31,.38l.15-.2,.09-.11c.13-.16,.3-.37,.43-.53-.09,.11-.2,.25-.29,.36,.59-.81,2.4-3.26,3.58-6.39,1.02-2.71,2.29-5.31,3.21-8.06,.81-2.41,.21-5.08,1.39-7.42q4.69-9.34,4.82-12.62c.23-5.82,1.33-7.53,2.73-9.7,0,0,0-.01,.01-.02h0s-.02-.02-.05-.02c-.03,0-.05,.02-.08,.03Zm-20.5-23.13c.66,.38,1.77-.03,2.04-.77,.06-.15,.06-.28,.06-.4h-.01c-.1-.75-.95-1.36-1.84-1.3-.71,.16-.77,.7-.79,.88-.03,.33-.13,1.2,.53,1.58Zm-11.78-80.42v-.04s-.02-.03-.02-.04c0,.01,0,.03,0,.04l.02,.04Zm7.23,42.33s0,0,0-.01c-.13,.16-.25,.3-.34,.38,.18-.17,.28-.29,.33-.36Zm8.61,.33c.11,2.06,.18,2.12,.56,2.45,.16-.56,.34-1.31,.42-1.89,.01-.08,1.03-7.74-1.65-10.97,.01-.02,.03-.05,.04-.07q.29-.15,.17-2.44c-.18,.46-.38,.91-.53,1.38,.03,.19,.08,.44,.12,.63q-.9-.6-1.12-4.8c1.86,.78,1.3-2.08,.75-3.35-.72-1.69-.93-1.66-2.6-1.45q-1.25-4.33-1.79-4.4-.29,.22-.43,.79c-.32-2.01-2.6-2-3.07-1.6-.19,.16-.26,.54-.3,.79-.14-.73-.19-1.24-.21-2.27,0,0,.02,.01,.03,.02,.06-.38,.07-.55,.06-.94,0-.11-.05-.25-.05-.36-.16-3.54,.96-7.14-.45-10.63-1.05-2.59-4.61-.88-5.73-3.36l-.07-.12c.03,.09,.06,.21,.11,.28,.42,3.07-.88,6.24,.58,9.24-.23-.06-.55,.09-.76,.2-.47,1.78,.43,5.2,2.11,6.5,.6-.34,.69-.75,.29-1.45q.86,.56,.47,3.54c-.18,.03-.41,.06-.59,.08-.45,1.17,.18,1.88,2.52,4.53,1.38-1.68-.26-3.54-1.36-4.49,.49-.15,1.07-.29,2.31-.1-.25,.73,.12,1.02,.47,1.18,.25-.11,.52-.23,.21-1.02,1.46,.5,2,2.02,3.16,2.85-.22-1.13-.79-1.54-.95-1.64,.03-.45,.13-1.82,1.54-.33,.84,.89,1.56,2.27,1.8,2.72-.06,0-.14,.01-.21,.02q-.19,1.2,1.73,3.95c-.41,.34-.68,.43-1.01-.02,.07-.02,.17-.05,.24-.07q.04-.45-.22-.91c-.19,.19-.28,.27-.11,.82l-.13-.27c-.37,.99-.36,1.84,.06,3.26-.04-.01-.09-.03-.13-.04t.68,1.26l1.94,3.46q-.42,1.4-3.5,4.81c.04-.11,.09-.26,.13-.37-.44-.75-2.97-.61-3.46,1.1-.3,1.04-.21,2.17-.69,3.16,1-1.26,1.22-1.85,1.35-2.17,.96,1.29,3.48-1.01,3.49,.67,0,1.24-.81,2.38-.41,3.66,.39,1.24,1.73,1.63,2.36,2.65-.01-1.74,1.42-2.89,1.81-4.47Zm-7.69-8.66c.46,.03,1.43-1.56,1.85-2.42,0,0,.24-1.34,.29-1.99,.17-2.11-.8-1.92-.81-1.91-.99,.77-2.15,6.27-1.32,6.32Zm1.25-9.94c.55-1.2,.83-1.91,.84-2.46,0-.03,0-.07-.01-.11,.72,.64,1.41,1.89,1.31,3.03-.02,.31-.1,.52-.15,.66-.59-1.32-1.24-1.5-2.19-.58v-.02l-.02,.06c.02-.09,.03-.21,.04-.3,.01-.38,.05-.42,.08-.45,.03,.02,.04,.02,.1,.17Zm.15-.06l.06,.02,.02-.14-.08,.12Zm-9.57-24.09s0-.02,0-.02h0s0,.01,0,.02Zm18.94,63.34c-.15,.22-.31,.45-.47,.66,.13-.99,.02-2,.17-3q.12-.81,.47-1.15c-.06,.04-.15,.09-.21,.12-.66,.53-1.38,1.49-1.72,4.65q-.05-.13-.1-.19c-.13,.41,.05,3.81,.19,4.56,.28,1.56,.65,1.63,.91,1.54-.93-3.92,1.63-3.84,1.66-3.84-.34-1.45-.31-2.15,.53-4.72-.5-.15-1.49,1.01-1.42,1.35Zm-125.18-25.5s.04,.07,.06,.1c-.13-.34-.26-.67-.39-1,.01,.1,.02,.24,.03,.35,.09,.19,.19,.37,.29,.55Zm-85.56,79.12l-.15-.32s.03,.12,.05,.17c-.23-.54-.25-.55-.51-.68q-.1,.29-.17,3.72h0c-.36-.59-.42-.73-.61-1.38-.9,2.23-.93,3.32-.25,8.98,.85,7.04-.47,20.77-4.5,21.06-1.41,.1-4.19-1.92-5.16-5.2-.92-3.1-2.11-19.15-2.1-19.25,.13-2.18,2.26-2.79,3.31-4.25,.32-.44,.43-.99,.75-1.43,.16-.22,.43-.47,.62-.67,1.6-1.64,1.8-3.99,2.95-5.86,.68-1.12,.96-2.47,1.95-3.41,1.24-.35,2.2,2.54,2.8,5.02,.46,1.93,.62,2.58,1.04,3.5Zm-.35-.81c-.06-.14-.09-.28-.17-.41,0,.07,.04,.13,.07,.19,.03,.07,.07,.16,.1,.22Zm192.2-116.01l-.05-.16c.01,.05,.03,.1,.04,.15,0,0,0,0,0,0Z" fill="#2f6e24"/><g><path d="M379.66,106.43c21.06,32.21,33.31,70.69,33.31,112.04,0,113.23-91.8,205.03-205.03,205.03-41.35,0-79.84-12.25-112.05-33.31,36.6,55.99,99.84,92.99,171.72,92.99,113.24,0,205.03-91.8,205.03-205.03,0-71.88-37-135.11-92.99-171.72Z" fill="#dbdbdb" mix-blend-mode="multiply"/><path d="M68.68,228.41c4.46,.44,8.98,.67,13.55,.67,75.29,0,136.33-61.04,136.33-136.33,0-4.58-.23-9.1-.67-13.55-73.27,18.26-130.94,75.93-149.2,149.2Z" fill="#262626" mix-blend-mode="screen"/></g></g></g><rect x="12.72" y="13.29" width="267.72" height="267.72" rx="24.99" ry="24.99" fill="url(#linear-gradient)"/></g></g></g></g></svg>