<?xml version="1.0" encoding="UTF-8"?><svg id="Layer_2" xmlns="http://www.w3.org/2000/svg" xmlns:xlink="http://www.w3.org/1999/xlink" viewBox="0 0 472.53 480.62"><defs><clipPath id="clippath"><rect width="293.15" height="293.15" rx="24.99" ry="24.99" fill="none"/></clipPath><linearGradient id="linear-gradient" x1="-674.97" y1="245.94" x2="-421.93" y2="-7.09" gradientTransform="translate(-401.87 266.57) rotate(-180)" gradientUnits="userSpaceOnUse"><stop offset=".56" stop-color="#fff" stop-opacity="0"/><stop offset="1" stop-color="#fff" stop-opacity=".7"/></linearGradient></defs><g id="Layer_1-2"><g><g clip-path="url(#clippath)"><rect y=".57" width="293.15" height="293.15" rx="24.99" ry="24.99" fill="#61c640"/><circle cx="268.57" cy="276.66" r="203.96" fill="#2d7f1f"/><text transform="translate(16.76 48.5)" fill="#fff" font-family="Lexend-Bold, Lexend" font-size="36" font-variation-settings="&apos;wght&apos; 700"><tspan x="0" y="0">Bio</tspan><tspan x="59.79" y="0" letter-spacing="0em">l</tspan><tspan x="70.38" y="0">ogy</tspan></text><g><path d="M284.03,324.39c8.78-.78,13.5,4.5,17.3,10.94,3.15,5.34,1.19,12.51-4.39,15.46-6.2,3.27-12.54,6.31-19.01,9.02-5.89,2.47-13.03,.29-17-4.61-4.11-5.08-4.77-11.99-.94-17.47,2.03-2.91,1.1-4.38-.46-7.04-5.01-8.52-11.08-11.83-21.08-8.08-5.1,1.91-11.15,1.55-16.78,1.71-2.95,.09-4.56,.95-5.27,3.78-.33,1.32-.94,2.59-1.57,3.8-2.12,4.02-2.77,7.31,.31,11.83,5.23,7.67,.95,17.75-8.04,19.88-7.19,1.7-14.59,.33-20.75-3.46-9.21-5.68-8.4-18.44,1.26-23.65,2.61-1.41,3.16-2.8,2.76-5.29-.17-1.05-.23-2.14-.15-3.2,.41-5.56-.83-9.71-7.4-10.67-2.71-.39-4.81-2.56-3.7-5.72,1.17-3.36,3.85-3.43,6.79-2.29,12.2,4.71,12.04,1.31,12.84,16.64,.21,3.97,.4,7.94,.69,11.9,.25,3.49-.93,5.68-4.76,5.69-3.39,.01-5.72,1.51-5.87,5.03-.16,3.59,2.34,5.01,5.51,5.56,2.56,.44,5.19,1.52,7.64,1.2,2.2-.28,4.96-1.58,6.11-3.33,1.66-2.53-.04-5.17-2.68-6.3-3.79-1.63-3.99-4.18-2.65-7.43,2.45-5.92,4.93-11.82,7.39-17.74,1.38-3.31,3.76-4.59,7.42-4.97,10.44-1.07,20.85-2.49,31.21-4.15,3.18-.51,5.67-.45,7.79,2.15,4.82,5.92,9.72,11.78,14.52,17.72,2.71,3.35,2.58,6.19-1.4,8.72-3.14,2-4.67,5.09-2.55,8.66,2.13,3.58,5.43,4.19,9.15,2.47,4.29-1.99,8.57-3.99,12.82-6.05,2.23-1.08,5.39-1.57,4.68-5.14-.78-3.94-5.04-7.19-8.62-6.9q-7.99,.66-9.78-7.45c-1.35-6.12-2.65-12.25-4.06-18.35-.83-3.58,.27-6.17,3.31-8.25,11.63-7.96,21.23-17.86,28.47-30,1.76-2.95,4.22-4.2,7.69-3.59,6.92,1.22,13.86,2.35,20.8,3.47,4.03,.65,5.15,2.76,4.56,6.82-.27,1.86,.89,4.85,2.39,5.84,2.75,1.81,4.91-.4,6.08-2.94,2.35-5.13,4.61-10.31,6.66-15.56,1.01-2.59,.88-5.26-2.33-6.44-3.02-1.12-4.89,.33-6.21,3.02-3.02,6.13-4.76,6.5-10.36,2.46-4.7-3.39-9.4-6.78-14.15-10.11-3.59-2.51-4.96-5.38-4.13-10.11,1.47-8.38,2.23-16.93,2.66-25.44,.22-4.31,1.72-6.88,5.66-8.31,4.16-1.51,8.18-3.52,12.45-4.55,1.89-.46,4.87,.31,6.22,1.66,2.51,2.51,4.9,4.39,8.37,2.83,3.59-1.62,4.35-4.83,3.66-8.51-.23-1.2-.28-2.43-.54-3.63-.7-3.28-2.83-5.05-6.12-5.12-3.3-.07-5.81,1.59-6.26,4.88-.66,4.92-3.42,5.88-7.73,5.29-3.93-.54-7.91-.75-11.88-1.03-3.63-.26-5.76-2.07-6.94-5.57-2-5.92-4.17-11.79-6.58-17.55-1.35-3.25-1.03-5.83,1.36-8.36,4.72-5.01,9.4-10.04,13.99-15.17,2.82-3.14,5.44-3.63,8.37-.19,1.8,2.12,4.47,3.14,6.28,.83,1.16-1.48,1.57-4.8,.69-6.4-2.78-5.06-6.06-9.92-9.74-14.37-1.11-1.35-4.47-2.04-6.2-1.4-2.55,.94-2.66,3.6-1.34,6.19,3.78,7.43,3.55,7.94-4.36,11.04-5.4,2.12-10.86,4.07-16.21,6.3-3.55,1.48-6.17,.76-9.11-1.78-7.02-6.06-14.27-11.89-21.71-17.43-3.11-2.31-4.57-4.65-3.72-8.47,.8-3.58,1.36-7.2,2.06-10.8,.64-3.24,2.22-5.25,5.96-4.82,3.65,.41,6.41-1.09,7.25-4.78,.82-3.59-.77-6.19-4.2-7.66-2.66-1.14-5.25-2.46-7.93-3.56-3.5-1.43-6.43-.41-8.24,2.8-1.85,3.28-.97,6.26,2.17,8.32,3.72,2.45,3.75,5.1,1.04,8.36-2.53,3.05-4.82,6.3-7.26,9.44-1.91,2.46-4.34,3.15-7.33,2.18-2.03-.65-4.12-1.15-6.19-1.64-3.03-.71-4.57-2.41-3.81-5.61,.77-3.22,3.44-3.68,5.77-2.74,5.22,2.11,7.93-.3,9.71-4.02-1.3-3.52-3.01-6.55-3.48-9.75-1.36-9.18,6.53-18.12,15.58-16.35,6.59,1.29,13.59,4.38,18.66,8.72,8.61,7.36,4.71,21.22-6.33,24.25-3.71,1.02-3.52,3.35-4.3,5.86-.85,2.76,.87,3.65,2.65,5.01,6.05,4.63,11.89,9.54,17.95,14.16,1.11,.84,3.07,1.49,4.28,1.11,4.19-1.33,8.22-3.15,12.31-4.78-.02-.67,.05-1.13-.05-1.56-1.65-7.73,.93-13.72,7.13-16.51,6.27-2.82,12.66-.59,17.26,6.1,3.11,4.52,6.19,9.06,9.23,13.63,3.36,5.05,3.14,11.13-.49,15.81-3.47,4.47-9.24,6.29-14.81,4.01-3.04-1.25-4.22,.06-6.44,1.8-7.58,5.97-8.05,12.21-3.87,20.7,2.19,4.44,3.78,6.84,8.85,6.69,2.43-.07,3.71-.47,5.03-2.68,3.37-5.64,9.66-8.22,15.71-7,6.03,1.21,11.34,6.44,11.9,12.92,.39,4.55,.55,9.65-1.09,13.75-3.29,8.22-13.27,10.67-20.82,6.04-3.42-2.09-10.12-1.65-12.78,1.05-.62,.62-.69,1.89-.8,2.88-.81,7.43-1.68,14.86-2.24,22.31-.11,1.51,.55,3.65,1.64,4.57,3.35,2.85,7.09,5.25,10.66,7.82,7.27-7.73,15.3-8.3,21.44-1.6,3.7,4.03,4.26,8.74,2.37,13.65-2.25,5.83-4.71,11.59-7.31,17.28-2.47,5.39-7.76,8.32-13.36,7.77-5.77-.57-10.5-4.63-11.57-10.68-.47-2.66-1.69-3.13-3.98-3.89-8.88-2.96-14.61-.98-20.17,7.42-5.17,7.81-13.51,13.49-20.26,20.3-1.24,1.26-2.36,3.56-2.13,5.18,.7,4.97,2.08,9.83,3.32,15.29Z" fill="#fff"/><path d="M126.46,295.68c.3-.21,.46-.27,.54-.39,2.6-4.13,6.93-8.12,7.27-12.43,.31-4.01-3.69-8.33-5.66-12.57-2.56-5.53-5.55-10.95-7.3-16.73-1.33-4.39-3.51-5.93-7.7-5.63-1.2,.08-2.42-.07-3.77-.12-.6,1.29-1.11,2.53-1.73,3.71-2.48,4.72-7.3,7.36-12.46,6.88-5.22-.49-10.03-4.26-11.15-9.47-1.06-4.91-1.74-9.95-2.11-14.96-.42-5.67,2.63-9.7,7.53-12.06,4.66-2.25,9.56-1.78,13.21,1.89,3.89,3.9,6.62,0,9.85-.58,3.14-.56,2.27-3.03,2.49-5.06,.78-7.28,1.48-14.58,2.56-21.82,.36-2.41,.29-3.93-1.94-5.36-3.44-2.22-6.64-4.83-10.17-7.45-.98,.85-1.86,1.61-2.72,2.39-4.67,4.15-11.12,4.73-16.08,1.45-5.05-3.34-7.52-9.6-5.33-15.26,2.59-6.68,5.47-13.28,8.78-19.63,2.58-4.95,7.41-6.79,12.84-6.1,5.45,.7,9.2,3.86,10.84,9.22,.44,1.45,.64,2.97,1.01,4.78,4.53,.82,9.15,1.9,13.83,2.37,1.39,.14,3.33-1.08,4.35-2.26,3.4-3.9,6.63-7.98,9.64-12.19,.76-1.07,1.09-3.19,.54-4.29-.82-1.64-2.46-3.79-3.99-4-9.22-1.26-13.92-4.42-15.85-11.44-1.91-6.95,.86-13.41,7.88-18.39,1.98-1.4,3.84-3.13,6.03-4.09,10.68-4.71,22.17,3.11,21.91,14.76-.15,6.66,4.31,9.18,10.39,6.27,6.04-2.9,12.37-5.17,18.44-8.02,1.43-.67,3-2.39,3.29-3.86,.81-4.17,.98-8.46,1.35-12.1-3.47-2.09-7.18-3.34-9.46-5.87-6.92-7.72-2.54-19.75,7.75-21.56,6.46-1.14,13.03-1.75,19.58-2.23,6.07-.45,10.99,2.83,13.08,8.11,2.19,5.53,.59,11.03-3.99,15.33-.95,.89-1.39,3.05-1.08,4.4,.71,3.1,1.79,6.19,3.2,9.04,.83,1.68,2.72,2.81,3.89,4.36,1.1,1.46,2.81,3.36,2.53,4.71-.29,1.39-2.54,3.12-4.13,3.36-4.04,.61-7.4-.47-8.9-5.14-2.05-6.39-4.63-12.6-6.91-18.91-1.64-4.53-.76-5.72,3.45-7.76,1.77-.86,3.88-3.29,3.9-5.02,.03-2.94-2.58-4.18-5.62-3.83-5.47,.64-10.94,1.19-16.4,1.89-3.09,.4-5.31,1.98-4.81,5.44,.47,3.21,2.85,3.88,5.81,3.71,6.77-.39,7.81,.76,7.12,7.49-.65,6.39-1.39,12.77-1.98,19.16-.32,3.46-2.11,5.32-5.31,6.65-8.56,3.55-16.9,7.65-25.5,11.08-2.2,.88-5.56,.92-7.54-.18-3.82-2.12-7.28-5.08-10.38-8.2-1.16-1.16-1.63-3.97-1.12-5.63,1.09-3.49,.94-6.36-1.94-8.67-3.13-2.5-6.35-1.63-9.32,.4-1.76,1.2-3.95,2.42-4.77,4.18-1.11,2.37-2.07,5.59-1.33,7.87,1.04,3.24,4.43,4.95,7.9,3.53,4.71-1.92,6.31,.53,8.46,4.12,4.78,7.99,6.58,14.95-2.03,21.88-3.55,2.86-5.7,7.49-8.38,11.38-2.11,3.06-4.66,4.57-8.54,3.76-6.43-1.34-12.92-2.37-19.38-3.6-4.98-.95-5.55-2.25-5.21-7.13,.13-1.94-1.55-4.01-2.41-6.02-2,.97-4.95,1.41-5.83,3-2.87,5.19-5.32,10.68-7.19,16.3-.51,1.54,1.14,4.68,2.7,5.7,.95,.62,4.46-.87,5.39-2.33,4.4-6.91,4.74-7.12,11.33-2.25,4.79,3.54,9.55,7.11,14.43,10.52,3.19,2.23,3.78,4.92,3.2,8.72-1.37,9.03-2.45,18.13-3.08,27.23-.29,4.25-1.61,6.85-5.7,8.23-4.04,1.37-7.96,3.09-11.9,4.75-3.37,1.43-5.62,.72-7.66-2.55-.94-1.5-3.52-1.96-5.35-2.9-.86,1.75-2.42,3.5-2.42,5.26,0,3.48,.82,6.96,1.35,10.44,.41,2.75,1.77,4.66,4.83,4.29,2.85-.34,3.52-2.36,3.5-4.99-.04-5.07,1.19-6.19,6.24-5.87,4.58,.29,9.14,.75,13.72,1.04,3.66,.23,5.82,1.91,6.84,5.56,3.17,11.44,8.28,21.96,15.47,31.44,1.94,2.55,2.42,5.25,.67,8.08-3.77,6.09-7.61,12.15-11.37,18.25-2.11,3.42-4.5,3.68-8.1,1.87-1.84-.92-5.19-.81-6.83,.32-2.61,1.8-2.09,5-.04,7.29,3.67,4.1,7.48,8.08,11.46,11.88,2.38,2.27,5.35,2.6,7.76,.03,2.35-2.51,1.97-5.15-.34-7.74-4-4.48-3.64-6.59,1.36-9.7,5.56-3.47,11.16-6.89,16.68-10.42,3.26-2.09,6.23-1.97,9.25,.49,1.77,1.44,4.12,2.34,5.49,4.06,1.02,1.29,1.7,3.93,1.04,5.17-.65,1.23-4.14,2.51-4.74,1.97-7.85-7.1-12.81,.35-18.63,3.4-.54,.28-1.04,.62-1.81,1.09,.38,1.12,.76,2.21,1.12,3.32,2.09,6.37-.13,12.97-5.56,16.55-5.31,3.5-12.42,2.87-17.31-1.78-3.99-3.79-7.85-7.72-11.62-11.74-4.67-4.98-5.71-11.79-2.8-16.9,3.31-5.84,8.76-8.19,16.04-6.93,.58,.1,1.16,.22,1.6,.3Z" fill="#fff"/><path d="M157.66,197.29c-8.97,9.06-10.56,24.88-3.57,35.57,7.01,10.73,20.65,11.64,29.23,1.72,2.34-2.71,3.99-6.08,5.63-9.31,1.36-2.68,2.81-5.11,6.18-3.72,3.29,1.35,3.04,4.12,1.92,6.98-2.5,6.37-5.93,12.15-11.67,16.06-15.65,10.67-33.59,5.33-41.22-12.13-8.19-18.71,.5-42.12,18.24-48.53,17.57-6.35,32.77,6.64,35.79,22.26,.27,1.41-1.63,4.33-2.98,4.65-1.41,.34-3.88-1.22-4.97-2.65-1.42-1.87-1.7-4.54-2.87-6.66-6.75-12.27-19.93-14.12-29.71-4.24Z" fill="#fff"/><path d="M246.55,228.21c7.76,7.85,7.66,20.09-.24,27.86-7.79,7.67-20.37,7.67-28,0-7.52-7.55-7.57-20.56-.09-28.17,7.69-7.83,20.42-7.69,28.33,.31Zm-21.75,5.77c-4.67,4.54-4.75,11.23-.18,15.81,4.42,4.43,11.1,4.53,15.55,.25,4.51-4.34,4.61-11.56,.21-15.96-4.33-4.34-11.17-4.38-15.58-.09Z" fill="#fff"/><path d="M227.96,164.67c-7.19,7.32-18.16,8.05-24.6,1.65-6.3-6.26-5.73-16.98,1.29-24.28,6.96-7.24,18.38-8.2,24.72-2.09,6.35,6.11,5.69,17.48-1.42,24.72Zm-16.83-16.7c-3.86,3.83-4.65,9.29-1.79,12.23,2.85,2.93,8.48,2.23,12.28-1.53,3.91-3.86,4.63-9.18,1.67-12.2-3-3.06-8.22-2.42-12.16,1.49Z" fill="#fff"/><path d="M223.8,279.54c5.97,6.04,5.99,15.85,.04,21.89-6.01,6.1-16.35,6.14-22.3,.07-5.81-5.92-5.8-16.11,0-22.02,6-6.11,16.19-6.08,22.26,.06Zm-15.75,5.93c-2.85,2.68-2.97,6.95-.25,9.76,2.7,2.79,7.07,2.85,9.79,.14,2.54-2.54,2.66-6.83,.26-9.51-2.54-2.83-7-3.01-9.79-.39Z" fill="#fff"/><path d="M280.62,204.21c-5.97,6.08-15.72,6.15-21.8,.17-6.1-6-6.22-15.76-.28-21.82,5.88-5.99,15.92-6.12,21.93-.27,5.95,5.78,6.02,15.96,.15,21.93Zm-6.38-15.51c-2.74-2.73-6.52-2.75-9.28-.04-2.65,2.59-2.82,6.8-.38,9.43,2.52,2.73,7.05,2.68,9.75-.11,2.7-2.78,2.66-6.54-.09-9.28Z" fill="#fff"/><path d="M268.36,250.25c5.98-5.95,15.47-5.96,21.34-.02,5.82,5.88,5.77,15.64-.1,21.44-5.9,5.83-15.54,5.78-21.41-.12-5.91-5.94-5.84-15.33,.17-21.3Zm14.95,15.28c2.59-2.46,2.73-6.34,.32-8.96-2.46-2.67-6.92-2.82-9.39-.31-2.33,2.36-2.27,6.62,.12,9.07,2.53,2.59,6.35,2.68,8.95,.2Z" fill="#fff"/><path d="M292.44,228.24c-2.05,.91-4.04,2.57-5.73,2.31-1.48-.23-3.91-3.66-3.74-3.87,2.48-2.99,5.25-5.76,8.24-8.23,.21-.18,3.77,2.32,3.85,3.68,.11,1.91-1.59,3.92-2.62,6.11Z" fill="#fff"/><path d="M173.33,158.45c3.09-3.22,5.7-5.19,8.58-2.27,2.93,2.97,.68,5.51-1.6,7.73-.76,.74-1.5,1.95-2.35,2.05-1.89,.23-4.38,.55-5.62-.43-.98-.78-.78-3.49-.51-5.25,.15-1,1.49-1.82,1.5-1.83Z" fill="#fff"/><path d="M173.83,264.66c2.1-2.2,4.66-3.58,7.16-1.2,2.72,2.6,1.24,5.22-1.04,7.49-2.26,2.26-4.91,3.87-7.51,1.2-2.59-2.66-.92-5.32,1.38-7.5Z" fill="#fff"/><path d="M235.23,197.73c-2.23,2.55-4.83,3.85-7.46,1.07-2.53-2.67-.67-5.04,1.38-7.11,2.18-2.21,4.73-4.14,7.45-1.33,2.63,2.72,1.04,5.32-1.37,7.37Z" fill="#fff"/><path d="M246.71,280.94c2.12-2.52,4.65-4.13,7.35-1.27,2.45,2.61,.85,4.97-1.35,7.09-2.21,2.13-4.44,4.32-7.37,1.44-2.93-2.88-.94-5.22,1.37-7.27Z" fill="#fff"/></g></g><rect x="12.72" y="13.29" width="267.72" height="267.72" rx="24.99" ry="24.99" fill="url(#linear-gradient)"/></g></g></svg>