<svg width="36" height="44" viewBox="0 0 36 44" fill="none" xmlns="http://www.w3.org/2000/svg">
<path d="M31 0.333313C32.1493 0.333313 33.2515 0.789859 34.0642 1.60252C34.8768 2.41517 35.3334 3.51737 35.3334 4.66665V39.3333C35.3334 40.4826 34.8768 41.5848 34.0642 42.3974C33.2515 43.2101 32.1493 43.6666 31 43.6666H5.00002C3.85075 43.6666 2.74855 43.2101 1.93589 42.3974C1.12323 41.5848 0.666687 40.4826 0.666687 39.3333V4.66665C0.666687 3.51737 1.12323 2.41517 1.93589 1.60252C2.74855 0.789859 3.85075 0.333313 5.00002 0.333313H31ZM18 24.1666H11.5C10.9254 24.1666 10.3743 24.3949 9.96796 24.8012C9.56163 25.2076 9.33335 25.7587 9.33335 26.3333C9.33335 26.9079 9.56163 27.459 9.96796 27.8654C10.3743 28.2717 10.9254 28.5 11.5 28.5H18C18.5747 28.5 19.1258 28.2717 19.5321 27.8654C19.9384 27.459 20.1667 26.9079 20.1667 26.3333C20.1667 25.7587 19.9384 25.2076 19.5321 24.8012C19.1258 24.3949 18.5747 24.1666 18 24.1666ZM24.5 13.3333H11.5C10.9478 13.3339 10.4166 13.5454 10.0151 13.9245C9.61349 14.3036 9.37184 14.8217 9.33948 15.373C9.30712 15.9243 9.48648 16.4671 9.84093 16.8906C10.1954 17.3141 10.6981 17.5863 11.2465 17.6515L11.5 17.6666H24.5C25.0523 17.666 25.5834 17.4546 25.985 17.0755C26.3865 16.6964 26.6282 16.1782 26.6606 15.627C26.6929 15.0757 26.5136 14.5328 26.1591 14.1093C25.8047 13.6859 25.3019 13.4137 24.7535 13.3485L24.5 13.3333Z" fill="black"/>
</svg>
