<svg width="15" height="15" viewBox="0 -10 20 30" fill="none" xmlns="http://www.w3.org/2000/svg">
<path fill-rule="evenodd" clip-rule="evenodd" d="M6.67196 5.74695H13.328C16.702 5.74695 18.39 5.74695 19.338 6.73395C20.286 7.72095 20.062 9.24495 19.616 12.2939L19.194 15.1859C18.844 17.5769 18.669 18.7729 17.772 19.4889C16.875 20.2049 15.552 20.2049 12.905 20.2049H7.09496C4.44896 20.2049 3.12496 20.2049 2.22796 19.4889C1.33096 18.7729 1.15596 17.5769 0.805963 15.1859L0.383963 12.2949C-0.0630369 9.24495 -0.286037 7.72095 0.661963 6.73395C1.60996 5.74695 3.29796 5.74695 6.67196 5.74695ZM5.99996 16.2049C5.99996 15.7909 6.37296 15.4549 6.83296 15.4549H13.167C13.627 15.4549 14 15.7909 14 16.2049C14 16.6189 13.627 16.9549 13.167 16.9549H6.83296C6.37296 16.9549 5.99996 16.6189 5.99996 16.2049Z" fill="#FFC800"/>
<path d="M6.51 0H13.49C13.722 0 13.9 1.05239e-07 14.056 0.0150001C15.164 0.124 16.071 0.79 16.456 1.687H3.544C3.929 0.79 4.836 0.124 5.944 0.0150001C6.098 1.05239e-07 6.276 0 6.51 0ZM4.31 2.723C2.92 2.723 1.78 3.563 1.4 4.677L1.376 4.747C1.774 4.627 2.189 4.547 2.608 4.494C3.688 4.355 5.054 4.355 6.64 4.355H13.532C15.118 4.355 16.483 4.355 17.564 4.494C17.984 4.548 18.398 4.626 18.796 4.747L18.773 4.677C18.393 3.563 17.253 2.723 15.862 2.723H4.31Z" fill="#FFC800"/>
</svg>
