<svg width="35" height="30" viewBox="0 0 35 30" fill="none" xmlns="http://www.w3.org/2000/svg">
<path d="M34.7427 27.8382C34.7427 28.1834 34.6055 28.5144 34.3615 28.7585C34.1174 29.0026 33.7864 29.1397 33.4412 29.1397H2.20589C1.86072 29.1397 1.52968 29.0026 1.28561 28.7585C1.04154 28.5144 0.904419 28.1834 0.904419 27.8382C0.904419 27.493 1.04154 27.162 1.28561 26.9179C1.52968 26.6739 1.86072 26.5367 2.20589 26.5367H33.4412C33.7864 26.5367 34.1174 26.6739 34.3615 26.9179C34.6055 27.162 34.7427 27.493 34.7427 27.8382ZM34.7427 3.11027V21.3309C34.7427 22.0212 34.4684 22.6833 33.9803 23.1714C33.4921 23.6596 32.8301 23.9338 32.1397 23.9338H3.50736C2.81702 23.9338 2.15495 23.6596 1.6668 23.1714C1.17866 22.6833 0.904419 22.0212 0.904419 21.3309V3.11027C0.904419 2.41992 1.17866 1.75785 1.6668 1.26971C2.15495 0.781562 2.81702 0.507324 3.50736 0.507324H32.1397C32.8301 0.507324 33.4921 0.781562 33.9803 1.26971C34.4684 1.75785 34.7427 2.41992 34.7427 3.11027ZM23.6802 12.2206C23.6801 12.0114 23.6296 11.8054 23.5331 11.6199C23.4365 11.4344 23.2967 11.275 23.1254 11.155L16.618 6.59983C16.4231 6.46323 16.1943 6.38274 15.9567 6.36711C15.7192 6.35149 15.4819 6.40133 15.2707 6.51121C15.0595 6.62109 14.8824 6.78681 14.7589 6.99032C14.6353 7.19382 14.5699 7.42733 14.5699 7.66541V16.7757C14.5699 17.0138 14.6353 17.2473 14.7589 17.4508C14.8824 17.6543 15.0595 17.82 15.2707 17.9299C15.4819 18.0398 15.7192 18.0896 15.9567 18.074C16.1943 18.0584 16.4231 17.9779 16.618 17.8413L23.1254 13.2861C23.2967 13.1662 23.4365 13.0067 23.5331 12.8212C23.6296 12.6357 23.6801 12.4297 23.6802 12.2206Z" fill="black"/>
</svg>
