<?xml version="1.0" encoding="UTF-8"?><svg id="Layer_2" xmlns="http://www.w3.org/2000/svg" viewBox="0 0 420.75 419.67"><g id="Layer_1-2"><g><g><path d="M40.16,194.93l-28.25-27.61c-1.12,1.66-2.15,3.38-3.1,5.15-.01,.02-.02,.04-.03,.06-.23,.42-.45,.85-.67,1.28-.03,.06-.06,.12-.09,.19-.2,.39-.39,.78-.58,1.18-.04,.09-.09,.18-.13,.27-.17,.37-.34,.74-.51,1.11-.05,.11-.1,.23-.15,.34-.15,.35-.31,.7-.45,1.06-.06,.13-.11,.27-.16,.4-.14,.34-.27,.68-.41,1.02-.06,.15-.11,.3-.17,.45-.12,.33-.25,.66-.36,.99-.06,.16-.12,.33-.17,.49-.11,.32-.22,.64-.33,.97-.06,.17-.11,.35-.17,.52-.1,.31-.2,.63-.29,.95-.06,.18-.11,.37-.16,.55-.09,.31-.18,.62-.26,.93-.05,.19-.11,.39-.16,.58-.08,.31-.16,.61-.24,.92-.05,.2-.1,.4-.15,.6-.07,.3-.14,.61-.21,.91-.05,.21-.09,.41-.14,.62-.06,.3-.12,.61-.18,.91-.04,.21-.08,.43-.12,.64-.06,.3-.11,.61-.16,.91-.04,.22-.07,.43-.11,.65-.05,.3-.09,.61-.13,.91-.03,.22-.06,.44-.09,.66-.04,.31-.07,.61-.11,.92-.03,.22-.05,.44-.08,.66-.03,.31-.06,.63-.09,.94-.02,.22-.04,.43-.06,.65-.03,.33-.04,.66-.07,.98-.01,.21-.03,.41-.04,.62-.02,.36-.03,.72-.04,1.09,0,.18-.02,.35-.02,.53-.01,.54-.02,1.08-.02,1.62s0,1.06,.02,1.59c.03,1.06,.08,2.1,.16,3.15,.04,.52,.09,1.04,.14,1.56,.1,.97,.22,1.93,.36,2.89,.09,.57,.18,1.14,.28,1.71,.18,1.01,.39,2.01,.61,3,.34,1.49,.74,2.96,1.19,4.4,.15,.48,.31,.96,.47,1.44,.32,.95,.67,1.9,1.04,2.83,.37,.93,.76,1.85,1.17,2.76,.62,1.36,1.28,2.7,1.99,4.01,.71,1.31,1.47,2.59,2.27,3.84,.8,1.25,1.64,2.47,2.53,3.65,.3,.39,.6,.79,.9,1.17,4.58,5.82,10.18,10.8,16.54,14.66,2.65,1.61,5.44,3.02,8.34,4.22l38.64-63.51H40.16Z" fill="#ffc800"/><path d="M40.12,260.33l-1.19-.49c-2.95-1.22-5.82-2.68-8.54-4.33-6.52-3.96-12.22-9.01-16.94-15.02-.31-.4-.62-.8-.92-1.2-.91-1.21-1.78-2.47-2.59-3.74-.82-1.28-1.6-2.6-2.32-3.93-.73-1.33-1.41-2.72-2.04-4.11-.42-.93-.82-1.88-1.2-2.83-.37-.95-.73-1.92-1.06-2.9-.17-.49-.32-.98-.48-1.47-.46-1.48-.87-3-1.22-4.51-.23-1.02-.45-2.05-.63-3.08-.1-.58-.2-1.17-.29-1.75-.15-1-.28-2-.37-2.96-.05-.53-.1-1.06-.14-1.59-.08-1.07-.14-2.16-.16-3.22-.01-.54-.02-1.08-.02-1.63s0-1.11,.02-1.66l.03-.68c.01-.33,.02-.65,.04-.97l.04-.63c.02-.39,.04-.7,.07-1.01l.08-.89c.02-.25,.04-.5,.07-.75l.09-.83c.03-.26,.06-.53,.09-.79l.1-.68c.04-.31,.09-.62,.14-.93l.13-.77c.05-.28,.09-.55,.14-.83l.12-.65c.06-.31,.12-.62,.19-.93l.14-.64c.07-.31,.14-.63,.21-.94l.15-.61c.08-.32,.16-.63,.24-.95l.16-.59c.09-.32,.18-.64,.27-.95l.17-.56c.1-.33,.2-.65,.3-.97l.17-.54c.11-.33,.22-.66,.33-.98l.18-.5c.12-.34,.25-.68,.37-1.01l.17-.46c.14-.35,.27-.7,.42-1.04l.17-.41c.15-.36,.3-.72,.46-1.08l.16-.36c.17-.38,.34-.76,.52-1.13l.13-.28c.19-.41,.39-.81,.59-1.21l.1-.19c.22-.44,.45-.88,.68-1.31,1-1.86,2.07-3.63,3.21-5.34l1-1.5,29.1,28.44h40.05l-40.7,66.89ZM12.17,169.68c-.72,1.15-1.41,2.33-2.04,3.51-.26,.48-.47,.89-.69,1.31l-.09,.19c-.19,.38-.38,.76-.56,1.14l-.12,.27c-.17,.36-.33,.72-.5,1.08l-.15,.34c-.15,.34-.3,.69-.44,1.03l-.16,.39c-.13,.33-.27,.66-.4,.99l-.17,.44c-.12,.32-.24,.64-.35,.96l-.17,.48c-.11,.31-.21,.62-.32,.94l-.17,.51c-.1,.31-.19,.62-.29,.92l-.16,.54c-.09,.3-.17,.6-.26,.91l-.15,.56c-.08,.3-.16,.6-.23,.9l-.14,.59c-.07,.3-.14,.6-.2,.89l-.13,.61c-.06,.29-.12,.59-.18,.89l-.12,.62c-.05,.26-.09,.52-.14,.79l-.12,.73c-.05,.3-.09,.59-.13,.89l-.09,.64c-.03,.25-.06,.5-.09,.75l-.09,.79c-.02,.23-.05,.47-.07,.7l-.08,.85c-.02,.29-.04,.59-.06,.88l-.04,.68c-.02,.31-.03,.62-.04,.92l-.02,.65c-.01,.52-.02,1.05-.02,1.58s0,1.03,.02,1.55c.03,1.01,.08,2.05,.16,3.07,.04,.51,.08,1.01,.13,1.52,.09,.92,.21,1.86,.36,2.82,.08,.56,.17,1.12,.27,1.67,.17,.98,.38,1.96,.6,2.93,.33,1.44,.72,2.89,1.16,4.29,.15,.47,.3,.94,.46,1.4,.31,.93,.65,1.85,1.01,2.76,.36,.91,.74,1.81,1.14,2.69,.6,1.32,1.25,2.64,1.94,3.91,.69,1.27,1.43,2.53,2.21,3.74,.77,1.21,1.61,2.41,2.47,3.56,.29,.39,.58,.77,.88,1.14,4.5,5.72,9.93,10.54,16.14,14.3,2.23,1.35,4.56,2.57,6.96,3.62l36.58-60.12H39.55l-27.38-26.75Z" fill="#231f20"/></g><g><path d="M96.44,171.23l62.37-31.19H63.03c-12.74,0-24.57,3.87-34.38,10.5l21.17,20.69h46.62Z" fill="#ffc800"/><path d="M96.79,172.73H49.21l-22.92-22.4,1.53-1.03c10.42-7.04,22.6-10.76,35.22-10.76h102.13l-68.37,34.19Zm-46.36-3h45.65l56.37-28.19H63.03c-11.4,0-22.42,3.19-32,9.23l19.4,18.95Z" fill="#231f20"/></g><g><path d="M194.96,148.47l-87.37,43.68-43.16,70.93s.03,0,.05,0c.15,0,.3,0,.45-.01,.34-.01,.68-.02,1.01-.04,.17,0,.33-.02,.49-.02,.34-.02,.68-.04,1.03-.06,.14-.01,.28-.02,.42-.03,.47-.04,.95-.08,1.42-.13,.06,0,.12-.01,.18-.02,.41-.04,.83-.09,1.24-.14,.15-.02,.31-.04,.46-.06,.32-.04,.64-.09,.96-.13,.16-.02,.33-.05,.49-.07,.34-.05,.67-.11,1-.17,.13-.02,.26-.04,.4-.07,.46-.08,.91-.17,1.36-.26,.1-.02,.2-.04,.3-.06,.36-.07,.71-.15,1.07-.23,.16-.04,.32-.07,.48-.11,.3-.07,.6-.14,.9-.22,.16-.04,.33-.08,.49-.13,.32-.08,.64-.17,.96-.26,.13-.04,.25-.07,.38-.11,.43-.12,.86-.25,1.29-.38,.13-.04,.26-.08,.39-.12,.31-.1,.62-.2,.92-.3,.17-.06,.33-.11,.5-.17,.27-.09,.55-.19,.82-.29,.17-.06,.33-.12,.5-.18,.3-.11,.6-.23,.9-.34,.13-.05,.26-.1,.38-.15,.41-.16,.81-.33,1.21-.49,.15-.07,.31-.13,.46-.2,.26-.11,.52-.23,.78-.34,.18-.08,.35-.16,.53-.24,.24-.11,.48-.22,.72-.34,.17-.08,.35-.16,.52-.25,.27-.13,.54-.27,.81-.4,.17-.09,.34-.17,.51-.26,.34-.17,.68-.35,1.01-.53,.17-.09,.35-.19,.52-.29,.22-.12,.44-.24,.65-.37,.18-.1,.37-.21,.55-.32,.21-.12,.41-.24,.62-.37,.18-.11,.36-.22,.54-.33,.19-.12,.39-.24,.58-.36l.12,.15,2.12-1.62c.14-.1,.29-.2,.43-.3,.19-.14,.38-.27,.57-.41,.17-.12,.34-.24,.5-.37,.19-.14,.38-.28,.58-.43,.16-.12,.32-.25,.48-.37,.35-.27,.7-.54,1.05-.82,.15-.12,.29-.23,.44-.35,.2-.16,.39-.33,.59-.49,.07-.06,.13-.11,.2-.17l50.81-38.88c21.55-13.21,37.05-35.31,41.38-61.2Z" fill="#ffc800"/><path d="M61.78,264.64l1.37-2.33,43.38-71.3,90.39-45.2-.49,2.91c-4.32,25.79-19.63,48.45-42.01,62.19l-50.9,38.97c-.2,.17-.4,.33-.6,.5l-.44,.36c-.35,.28-.71,.56-1.07,.84l-1.03,.77-1.01-1.12,.89,1.21-1.47,1.05-3.25,2.49-.21-.27-2.38,1.36c-.35,.19-.69,.37-1.04,.55l-.52,.26c-.28,.14-.55,.28-.83,.41l-1.81,.85c-.26,.12-.53,.23-.8,.35l-.47,.2c-.41,.17-.82,.34-1.24,.51l-.4,.15c-.3,.12-.61,.24-.92,.35l-.45,.16c-.34,.12-.62,.22-.9,.32l-.51,.18c-.31,.1-.63,.21-.94,.31l-.4,.13c-.44,.14-.88,.27-1.33,.39l-.39,.11c-.33,.09-.65,.18-.98,.27l-.5,.13c-.31,.08-.61,.15-.92,.22l-.49,.11c-.37,.08-.73,.16-1.1,.24l-.3,.06c-.47,.1-.94,.18-1.4,.27l-.4,.07c-.34,.06-.68,.12-1.03,.17l-.5,.08c-.33,.05-.65,.09-.98,.14l-.47,.06c-.42,.05-.84,.1-1.27,.14l-.18,.02c-.48,.05-.96,.09-1.45,.13l-.43,.03c-.35,.02-.7,.05-1.05,.07l-.5,.03c-.35,.02-.69,.03-1.04,.04l-3.19,.07Zm46.86-71.34l-41.47,68.16c.06,0,.12,0,.18-.01l.41-.03c.46-.04,.92-.08,1.38-.12l.18-.02c.4-.04,.8-.09,1.2-.14l.45-.06c.31-.04,.62-.08,.94-.13l.48-.07c.33-.05,.65-.11,.98-.16l.39-.07c.44-.08,.89-.16,1.33-.25l.29-.06c.35-.07,.7-.15,1.04-.23l.47-.11c.29-.07,.58-.14,.87-.21l.48-.12c.31-.08,.63-.17,.94-.25l.37-.1c.42-.12,.84-.25,1.26-.38l.38-.12c.3-.09,.6-.19,.89-.29l.49-.17c.27-.09,.53-.19,.8-.28l.49-.18c.29-.11,.58-.22,.87-.33l.37-.14c.4-.16,.79-.32,1.18-.48l.45-.19c.26-.11,.51-.22,.76-.33l1.73-.8c.27-.13,.53-.26,.79-.39l.5-.25c.33-.17,.66-.35,.99-.52l2.81-1.62c.19-.12,.38-.23,.56-.35l1.16-.73,.04,.05,3.49-2.58c.34-.26,.68-.53,1.02-.8l.42-.34c.2-.16,.39-.32,.57-.48l.2-.17,50.99-39.02c20.82-12.76,35.33-33.5,40.14-57.23l-84.29,42.14Z" fill="#231f20"/></g><g><path d="M419.23,199.95c0-.18-.01-.35-.02-.53-.01-.36-.02-.73-.04-1.09-.01-.21-.03-.41-.04-.62-.02-.33-.04-.66-.07-.98-.02-.22-.04-.43-.06-.65-.03-.31-.05-.63-.09-.94-.02-.22-.05-.44-.08-.66-.04-.31-.07-.61-.11-.92-.03-.22-.06-.44-.09-.66-.04-.3-.09-.61-.13-.91-.03-.22-.07-.43-.11-.65-.05-.3-.1-.61-.16-.91-.04-.21-.08-.43-.12-.64-.06-.3-.12-.61-.18-.91-.04-.21-.09-.42-.14-.62-.07-.31-.14-.61-.21-.91-.05-.2-.1-.4-.15-.6-.08-.31-.15-.62-.24-.92-.05-.19-.1-.39-.16-.58-.09-.31-.17-.62-.26-.93-.05-.18-.11-.37-.16-.55-.1-.32-.19-.63-.29-.95-.06-.17-.11-.35-.17-.52-.11-.32-.22-.64-.33-.97-.06-.16-.11-.33-.17-.49-.12-.33-.24-.66-.36-.99-.06-.15-.11-.3-.17-.45-.13-.34-.27-.68-.41-1.02-.05-.13-.11-.27-.16-.4-.15-.35-.3-.71-.45-1.06-.05-.11-.1-.23-.15-.34-.17-.37-.34-.74-.51-1.11-.04-.09-.08-.18-.13-.27-.19-.4-.38-.79-.58-1.18-.03-.06-.06-.12-.09-.19-.22-.43-.44-.86-.67-1.28-.01-.02-.02-.04-.03-.06-.95-1.77-1.99-3.49-3.1-5.15l-28.25,27.61h-37.99l38.64,63.51c2.9-1.2,5.68-2.61,8.34-4.22,6.36-3.86,11.96-8.84,16.54-14.66,.3-.39,.6-.78,.9-1.17,.89-1.18,1.73-2.4,2.53-3.65s1.56-2.53,2.27-3.84c.71-1.31,1.37-2.64,1.99-4.01,.41-.91,.8-1.83,1.17-2.76s.71-1.87,1.04-2.83c.16-.48,.32-.96,.47-1.44,.45-1.45,.85-2.91,1.19-4.4,.23-.99,.43-1.99,.61-3,.1-.57,.19-1.14,.28-1.71,.14-.96,.27-1.92,.36-2.89,.05-.52,.1-1.04,.14-1.56,.08-1.04,.13-2.09,.16-3.15,.01-.53,.02-1.06,.02-1.59s0-1.08-.02-1.62Z" fill="#ffc800"/><path d="M380.63,260.33l-40.7-66.89h40.05l29.1-28.44,1,1.5c1.14,1.7,2.21,3.48,3.18,5.28,.27,.5,.5,.94,.72,1.38l.05,.11c.24,.48,.44,.89,.63,1.29l.13,.28c.18,.37,.35,.75,.52,1.13l.14,.31c.17,.4,.33,.76,.48,1.12l.17,.41c.14,.35,.28,.7,.42,1.04l.18,.46c.13,.33,.25,.67,.37,1.01l.18,.5c.11,.33,.23,.66,.33,.99l.17,.53c.1,.33,.2,.65,.3,.97l.17,.56c.09,.32,.18,.64,.27,.96l.16,.6c.08,.31,.16,.63,.24,.94l.15,.62c.07,.31,.14,.62,.21,.94l.14,.64c.06,.31,.13,.62,.19,.93l.13,.66c.06,.3,.11,.61,.16,.92l.11,.68c.05,.31,.09,.62,.14,.94l.09,.67c.03,.26,.06,.53,.1,.79l.09,.83c.03,.27,.05,.55,.08,.83l.07,.8c.02,.28,.04,.55,.06,.83l.05,.82c.02,.33,.03,.65,.04,.98l.02,.67c.01,.55,.02,1.11,.02,1.66s0,1.09-.02,1.63c-.03,1.07-.08,2.16-.16,3.22-.04,.53-.09,1.06-.14,1.59-.1,.96-.22,1.96-.37,2.96-.09,.59-.18,1.17-.29,1.75-.18,1.03-.4,2.06-.63,3.08-.35,1.51-.76,3.02-1.22,4.51-.15,.49-.31,.98-.48,1.47-.33,.97-.69,1.95-1.06,2.9-.38,.95-.78,1.9-1.2,2.83-.63,1.38-1.31,2.77-2.04,4.1-.72,1.33-1.51,2.65-2.32,3.93-.81,1.27-1.69,2.53-2.59,3.74-.3,.4-.61,.8-.92,1.2-4.72,6.01-10.42,11.06-16.94,15.02-2.72,1.65-5.6,3.11-8.54,4.33l-1.19,.49Zm-35.36-63.89l36.58,60.12c2.39-1.05,4.73-2.27,6.96-3.62,6.21-3.77,11.64-8.58,16.14-14.3,.3-.38,.59-.76,.88-1.14,.86-1.15,1.69-2.35,2.47-3.56,.78-1.21,1.52-2.47,2.21-3.74,.69-1.28,1.35-2.59,1.94-3.91,.4-.88,.78-1.79,1.14-2.69,.36-.9,.7-1.83,1.01-2.76,.16-.46,.31-.93,.46-1.4,.44-1.42,.83-2.86,1.16-4.29,.22-.97,.42-1.95,.6-2.93,.1-.55,.19-1.11,.27-1.67,.14-.96,.26-1.91,.36-2.82,.05-.5,.1-1.01,.13-1.52,.08-1.01,.13-2.05,.16-3.07,.01-.52,.02-1.03,.02-1.55s0-1.06-.02-1.58l-.02-.64c-.01-.31-.02-.62-.04-.93l-.05-.79c-.02-.26-.03-.52-.05-.78l-.07-.77c-.02-.26-.05-.52-.07-.79l-.09-.79c-.03-.25-.06-.5-.09-.75l-.09-.64c-.04-.3-.08-.59-.13-.89l-.1-.63c-.05-.31-.1-.6-.15-.89l-.12-.63c-.06-.29-.11-.59-.18-.88l-.13-.61c-.07-.3-.13-.6-.2-.89l-.14-.59c-.07-.3-.15-.6-.23-.9l-.15-.56c-.08-.31-.17-.61-.26-.91l-.16-.54c-.09-.31-.19-.62-.29-.92l-.17-.51c-.1-.32-.21-.63-.32-.94l-.17-.48c-.11-.32-.23-.64-.35-.96l-.17-.44c-.13-.33-.26-.66-.39-.99l-.16-.39c-.14-.35-.29-.69-.44-1.03l-.15-.34c-.16-.36-.33-.72-.5-1.08l-.13-.27c-.18-.38-.37-.77-.56-1.15l-.05-.1c-.25-.5-.47-.92-.69-1.33-.66-1.23-1.35-2.42-2.08-3.57l-27.38,26.75h-35.93Z" fill="#231f20"/></g><g><path d="M324.31,171.23h46.62l21.17-20.69c-9.82-6.63-21.65-10.5-34.38-10.5h-95.78l62.37,31.19Z" fill="#ffc800"/><path d="M371.54,172.73h-47.59l-68.37-34.19h102.13c12.62,0,24.8,3.72,35.22,10.76l1.53,1.03-22.92,22.4Zm-46.88-3h45.66l19.4-18.95c-9.58-6.05-20.6-9.23-32-9.23h-89.42l56.37,28.19Z" fill="#231f20"/></g><g><path d="M225.79,148.47c4.34,25.89,19.84,48,41.38,61.2l50.81,38.88c.07,.06,.13,.11,.2,.17,.2,.16,.39,.33,.59,.49,.14,.12,.29,.23,.44,.35,.35,.28,.69,.55,1.05,.82,.16,.12,.32,.25,.48,.37,.19,.14,.38,.28,.58,.43,.17,.12,.33,.25,.5,.37,.19,.14,.38,.27,.57,.41,.14,.1,.29,.2,.43,.3l2.12,1.62,.12-.15c.19,.12,.39,.24,.58,.36,.18,.11,.36,.22,.54,.33,.21,.12,.41,.25,.62,.37,.18,.11,.37,.21,.55,.32,.22,.12,.44,.24,.65,.37,.17,.1,.35,.19,.52,.29,.34,.18,.67,.36,1.01,.53,.17,.09,.34,.17,.51,.26,.27,.14,.54,.27,.81,.4,.17,.08,.35,.17,.52,.25,.24,.11,.48,.23,.72,.34,.18,.08,.35,.16,.53,.24,.26,.12,.52,.23,.78,.34,.15,.07,.31,.13,.46,.2,.4,.17,.81,.33,1.21,.49,.13,.05,.26,.1,.38,.15,.3,.12,.6,.23,.9,.34,.17,.06,.33,.12,.5,.18,.27,.1,.54,.19,.82,.29,.17,.06,.33,.11,.5,.17,.31,.1,.61,.2,.92,.3,.13,.04,.26,.08,.39,.12,.43,.13,.86,.26,1.29,.38,.13,.04,.25,.07,.38,.11,.32,.09,.64,.18,.96,.26,.16,.04,.33,.08,.49,.13,.3,.08,.6,.15,.9,.22,.16,.04,.32,.08,.48,.11,.36,.08,.71,.16,1.07,.23,.1,.02,.2,.04,.3,.06,.45,.09,.91,.18,1.36,.26,.13,.02,.26,.05,.4,.07,.33,.06,.67,.11,1,.17,.16,.03,.33,.05,.49,.07,.32,.05,.64,.09,.96,.13,.15,.02,.31,.04,.46,.06,.41,.05,.82,.1,1.24,.14,.06,0,.12,.01,.18,.02,.47,.05,.94,.09,1.42,.13,.14,.01,.28,.02,.42,.03,.34,.02,.68,.05,1.03,.06,.16,0,.33,.02,.49,.02,.34,.02,.68,.03,1.01,.04,.15,0,.3,.01,.45,.01,.02,0,.03,0,.05,0l-43.16-70.93-87.37-43.68Z" fill="#ffc800"/><path d="M359.03,264.67l-3.26-.09c-.35-.01-.69-.02-1.04-.04l-.51-.03c-.35-.02-.7-.04-1.05-.07l-.43-.03c-.49-.04-.97-.08-1.45-.13h-.11c-.49-.06-.92-.11-1.34-.17l-.47-.06c-.33-.04-.66-.09-.99-.14l-.5-.08c-.35-.05-.69-.11-1.03-.17l-.4-.07c-.47-.08-.93-.17-1.4-.27l-.3-.06c-.37-.08-.73-.16-1.1-.24l-.49-.12c-.31-.07-.61-.15-.92-.22l-.5-.13c-.33-.09-.66-.18-.99-.27l-.39-.11c-.44-.13-.88-.26-1.32-.39l-.4-.13c-.32-.1-.63-.2-.95-.31l-.51-.17c-.28-.1-.56-.2-.84-.29l-.51-.19c-.31-.11-.62-.23-.92-.35l-.4-.15c-.41-.16-.82-.33-1.24-.5l-.48-.2c-.27-.12-.54-.23-.81-.35l-1.81-.84c-.28-.13-.55-.27-.83-.41l-.52-.27c-.35-.18-.69-.36-1.04-.55l-2.39-1.36-.21,.27-4.73-3.54,.76-1.3-.89,1.21-1.03-.77c-.36-.28-.72-.56-1.07-.84l-.45-.36c-.2-.16-.4-.33-.6-.5l-.13-.11-50.77-38.86c-22.38-13.74-37.7-36.41-42.01-62.19l-.49-2.91,90.39,45.2,44.82,73.66Zm-34.33-12.94l4.54,2.71c.32,.17,.65,.35,.98,.52l.5,.25c.26,.13,.52,.26,.79,.39l1.73,.8c.26,.11,.51,.23,.77,.34l.45,.19c.39,.16,.79,.33,1.18,.48l.37,.14c.29,.11,.59,.23,.88,.33l.43,.16c.32,.12,.59,.21,.86,.3l.49,.17c.3,.1,.6,.2,.9,.29l.38,.12c.42,.13,.84,.25,1.26,.37l.37,.1c.31,.09,.63,.17,.94,.26l.48,.12c.29,.07,.58,.14,.87,.21l.47,.11c.34,.08,.69,.15,1.04,.23l.3,.06c.43,.09,.88,.17,1.32,.25l.39,.07c.33,.06,.65,.11,.98,.16l.47,.07c.31,.05,.63,.09,.94,.13l.45,.06c.4,.05,.8,.1,1.21,.14h.11c.52,.07,.98,.11,1.45,.14l.41,.03h.18s-41.47-68.15-41.47-68.15l-84.29-42.14c4.81,23.73,19.32,44.47,40.14,57.23l.13,.09,51.06,39.09c.19,.16,.38,.32,.58,.48l.38,.31c.39,.31,.73,.58,1.07,.84l3.49,2.58,.04-.05Z" fill="#231f20"/></g><g><path d="M176.74,223.71l-.55,.4h68.42l-1.65-1.23c-13.69-10.17-24.75-23.81-31.82-39.33l-.74-1.82h0c-7.21,16.78-18.84,31.29-33.66,41.98Z" fill="#ffc800"/><path d="M249.15,225.61h-77.6l4.32-3.11c14.59-10.52,26.06-24.82,33.16-41.35l1.42-3.3,2.09,5.15c6.94,15.23,17.78,28.63,31.32,38.69l5.3,3.93Zm-68.44-3h59.41c-12.67-9.89-22.91-22.66-29.75-37.15-6.83,14.54-17,27.27-29.66,37.15Z" fill="#231f20"/></g><g><polygon points="143.17 247.64 125.24 261.62 125.24 281.27 295.16 281.27 295.16 261.62 277.67 247.64 143.17 247.64" fill="#ffc800"/><path d="M296.66,282.77H123.74v-21.88l18.92-14.75h135.54l18.46,14.76v21.86Zm-169.92-3h166.92v-17.42l-16.51-13.2H143.69l-16.95,13.21v17.41Z" fill="#231f20"/></g><g><path d="M138.96,337.76h143.85c4.19-9.78,7.46-20.47,9.66-31.83H129.31c2.19,11.36,5.47,22.05,9.66,31.83Z" fill="#ffc800"/><path d="M283.81,339.26H137.97l-.39-.91c-4.28-10.01-7.56-20.82-9.75-32.14l-.34-1.78h166.8l-.34,1.78c-2.19,11.32-5.47,22.13-9.75,32.14l-.39,.91Zm-143.85-3h141.87c3.79-9.03,6.75-18.71,8.82-28.83H131.13c2.07,10.12,5.03,19.81,8.82,28.83Z" fill="#231f20"/></g><g><path d="M186.53,390.83l24.36,26.62,24.45-26.66c12.72-5.59,24.19-15.42,33.62-28.38h-116.12c9.45,12.98,20.94,22.83,33.7,28.41Z" fill="#ffc800"/><path d="M210.89,419.67l-25.25-27.59c-12.63-5.6-24.39-15.54-34.02-28.78l-1.73-2.38h122.02l-1.73,2.38c-9.61,13.2-21.34,23.13-33.93,28.74l-25.34,27.63Zm-55.06-55.75c9.04,11.72,19.82,20.51,31.3,25.54l.29,.13,23.47,25.65,23.55-25.68,.29-.13c11.45-5.03,22.2-13.82,31.22-25.5h-110.13Z" fill="#231f20"/></g><g><path d="M155.69,115.6h109.43c0-30.22-24.5-54.71-54.71-54.71s-54.71,24.5-54.71,54.71Z" fill="#ffc800"/><path d="M266.61,117.1h-112.43v-1.5c0-31,25.22-56.21,56.21-56.21s56.21,25.22,56.21,56.21v1.5Zm-109.41-3h106.38c-.8-28.65-24.35-51.71-53.19-51.71s-52.4,23.06-53.19,51.71Z" fill="#231f20"/></g><g><path d="M247.17,34.87l13.64-13.64h25.77V1.5h-33.95l-25.2,25.2v18.87c6.95,1.49,13.58,3.88,19.74,7.04v-17.74Z" fill="#ffc800"/><path d="M248.67,55.06l-2.18-1.12c-6.11-3.14-12.63-5.46-19.37-6.91l-1.18-.25V26.08L252.01,0h36.07V22.74h-26.65l-12.76,12.76v19.57Zm-19.74-10.7c5.78,1.33,11.39,3.29,16.74,5.83v-15.94l14.52-14.52h24.89V3h-31.83l-24.32,24.32v17.05Z" fill="#231f20"/></g><g><path d="M173.34,34.87v17.89c6.16-3.19,12.78-5.61,19.74-7.13V26.7L167.88,1.5h-33.95V21.24h25.77l13.64,13.64Z" fill="#ffc800"/><path d="M171.84,55.23v-19.74l-12.76-12.76h-26.65V0h36.07l26.08,26.08v20.76l-1.18,.26c-6.73,1.47-13.25,3.83-19.37,7l-2.19,1.14Zm-36.41-35.5h24.9l14.51,14.52v16.09c5.34-2.57,10.96-4.55,16.74-5.91V27.32L167.26,3h-31.83V19.74Z" fill="#231f20"/></g></g></g></svg>