<?xml version="1.0" encoding="UTF-8"?><svg id="Layer_2" xmlns="http://www.w3.org/2000/svg" viewBox="0 0 420.75 419.67"><g id="Layer_1-2"><g><g><g><path d="M78.15,194.93H40.16l-28.25-27.61c-1.12,1.66-2.15,3.38-3.11,5.15-.01,.02-.02,.04-.03,.06-.23,.42-.45,.85-.67,1.28-.03,.06-.06,.12-.09,.19-.2,.39-.39,.78-.58,1.18-.04,.09-.09,.18-.13,.27-.17,.37-.34,.74-.51,1.11-.05,.11-.1,.23-.15,.34-.15,.35-.31,.7-.45,1.06-.06,.13-.11,.27-.16,.4-.14,.34-.27,.68-.41,1.02-.06,.15-.11,.3-.17,.45-.12,.33-.25,.66-.36,.99-.06,.16-.12,.33-.17,.49-.11,.32-.22,.64-.33,.97-.06,.17-.11,.35-.17,.52-.1,.31-.2,.63-.29,.95-.06,.18-.11,.37-.16,.55-.09,.31-.18,.62-.26,.93-.05,.19-.11,.39-.16,.58-.08,.31-.16,.61-.24,.92-.05,.2-.1,.4-.15,.6-.07,.3-.14,.61-.21,.91-.05,.21-.09,.41-.14,.62-.06,.3-.12,.61-.18,.91-.04,.21-.08,.43-.12,.64-.06,.3-.11,.61-.16,.91-.04,.22-.07,.43-.11,.65-.05,.3-.09,.61-.13,.91-.03,.22-.06,.44-.09,.66-.04,.31-.07,.61-.11,.92-.03,.22-.05,.44-.08,.66-.03,.31-.06,.63-.09,.94-.02,.22-.04,.43-.06,.65-.03,.33-.04,.66-.07,.98-.01,.21-.03,.41-.04,.62-.02,.36-.03,.72-.04,1.09,0,.18-.02,.35-.02,.53-.01,.54-.02,1.08-.02,1.62s0,1.06,.02,1.59c.03,1.06,.08,2.1,.16,3.15,.04,.52,.09,1.04,.14,1.56,.1,.97,.22,1.93,.36,2.89,.09,.57,.18,1.14,.28,1.71,.18,1.01,.39,2.01,.61,3,.34,1.49,.74,2.96,1.19,4.4,.15,.48,.31,.96,.47,1.44,.32,.95,.67,1.9,1.04,2.83,.37,.93,.76,1.85,1.17,2.76,.62,1.36,1.28,2.7,1.99,4.01,.71,1.31,1.47,2.59,2.27,3.84,.8,1.25,1.64,2.47,2.53,3.65,.3,.39,.6,.79,.9,1.17,4.58,5.82,10.18,10.8,16.54,14.66,2.65,1.61,5.44,3.02,8.34,4.22l38.64-63.51Z" fill="#ffc800" stroke="#231f20" stroke-miterlimit="10" stroke-width="3"/><path d="M49.82,171.23h46.62l62.37-31.19H63.03c-12.74,0-24.57,3.87-34.38,10.5l21.17,20.69Z" fill="#ffc800" stroke="#231f20" stroke-miterlimit="10" stroke-width="3"/><path d="M107.59,192.16l-43.16,70.93s.03,0,.05,0c.15,0,.3,0,.45-.01,.34-.01,.68-.02,1.01-.04,.17,0,.33-.02,.49-.02,.34-.02,.68-.04,1.02-.06,.14,0,.28-.02,.42-.03,.47-.04,.95-.08,1.42-.13,.06,0,.12-.01,.18-.02,.41-.04,.83-.09,1.24-.14,.15-.02,.31-.04,.46-.06,.32-.04,.64-.09,.96-.13,.16-.02,.33-.05,.49-.07,.34-.05,.67-.11,1-.17,.13-.02,.26-.04,.4-.07,.46-.08,.91-.17,1.36-.26,.1-.02,.2-.04,.3-.06,.36-.07,.71-.15,1.07-.23,.16-.04,.32-.07,.48-.11,.3-.07,.6-.14,.9-.22,.16-.04,.33-.08,.49-.13,.32-.08,.64-.17,.96-.26,.13-.04,.25-.07,.38-.11,.43-.12,.86-.25,1.29-.38,.13-.04,.26-.08,.39-.12,.31-.1,.62-.2,.92-.3,.17-.06,.33-.11,.5-.17,.27-.09,.55-.19,.82-.29,.17-.06,.33-.12,.5-.18,.3-.11,.6-.23,.9-.34,.13-.05,.26-.1,.38-.15,.41-.16,.81-.33,1.21-.49,.15-.07,.31-.13,.46-.2,.26-.11,.52-.23,.78-.34,.18-.08,.35-.16,.53-.24,.24-.11,.48-.22,.72-.34,.17-.08,.35-.16,.52-.25,.27-.13,.54-.27,.81-.4,.17-.09,.34-.17,.51-.26,.34-.18,.68-.35,1.01-.53,.17-.09,.35-.19,.52-.29,.22-.12,.44-.24,.65-.37,.18-.1,.37-.21,.55-.32,.21-.12,.41-.24,.62-.37,.18-.11,.36-.22,.54-.33,.19-.12,.39-.24,.58-.36l.12,.15,2.12-1.62c.14-.1,.29-.2,.43-.3,.19-.14,.38-.27,.57-.41,.17-.12,.34-.24,.5-.37,.19-.14,.38-.28,.58-.43,.16-.12,.32-.25,.48-.37,.35-.27,.7-.54,1.05-.82,.15-.12,.29-.23,.44-.35,.2-.16,.39-.33,.59-.49,.07-.06,.13-.11,.2-.17l50.81-38.88c21.55-13.21,37.05-35.31,41.38-61.2l-87.37,43.68Z" fill="#ffc800" stroke="#231f20" stroke-miterlimit="10" stroke-width="3"/></g><g><path d="M342.6,194.93h37.99s28.25-27.61,28.25-27.61c1.12,1.66,2.15,3.38,3.11,5.15,.01,.02,.02,.04,.03,.06,.23,.42,.45,.85,.67,1.28,.03,.06,.06,.12,.09,.19,.2,.39,.39,.78,.58,1.18,.04,.09,.09,.18,.13,.27,.17,.37,.34,.74,.51,1.11,.05,.11,.1,.23,.15,.34,.15,.35,.31,.7,.45,1.06,.06,.13,.11,.27,.16,.4,.14,.34,.27,.68,.41,1.02,.06,.15,.11,.3,.17,.45,.12,.33,.25,.66,.36,.99,.06,.16,.12,.33,.17,.49,.11,.32,.22,.64,.33,.97,.06,.17,.11,.35,.17,.52,.1,.31,.2,.63,.29,.95,.06,.18,.11,.37,.16,.55,.09,.31,.18,.62,.26,.93,.05,.19,.11,.39,.16,.58,.08,.31,.16,.61,.24,.92,.05,.2,.1,.4,.15,.6,.07,.3,.14,.61,.21,.91,.05,.21,.09,.41,.14,.62,.06,.3,.12,.61,.18,.91,.04,.21,.08,.43,.12,.64,.06,.3,.11,.61,.16,.91,.04,.22,.07,.43,.11,.65,.05,.3,.09,.61,.13,.91,.03,.22,.06,.44,.09,.66,.04,.31,.07,.61,.11,.92,.03,.22,.05,.44,.08,.66,.03,.31,.06,.63,.09,.94,.02,.22,.04,.43,.06,.65,.03,.33,.04,.66,.07,.98,.01,.21,.03,.41,.04,.62,.02,.36,.03,.72,.04,1.09,0,.18,.02,.35,.02,.53,.01,.54,.02,1.08,.02,1.62,0,.53,0,1.06-.02,1.59-.03,1.06-.08,2.1-.16,3.15-.04,.52-.09,1.04-.14,1.56-.1,.97-.22,1.93-.36,2.89-.09,.57-.18,1.14-.28,1.71-.18,1.01-.39,2.01-.61,3-.34,1.49-.74,2.96-1.19,4.4-.15,.48-.31,.96-.47,1.44-.32,.95-.67,1.9-1.04,2.83-.37,.93-.76,1.85-1.17,2.76-.62,1.36-1.28,2.7-1.99,4.01-.71,1.31-1.47,2.59-2.27,3.84s-1.64,2.47-2.53,3.65c-.3,.39-.6,.79-.9,1.17-4.58,5.82-10.18,10.8-16.54,14.66-2.65,1.61-5.44,3.02-8.34,4.22l-38.64-63.51Z" fill="#ffc800" stroke="#231f20" stroke-miterlimit="10" stroke-width="3"/><path d="M370.93,171.23h-46.62s-62.37-31.19-62.37-31.19h95.78c12.74,0,24.57,3.87,34.38,10.5l-21.17,20.69Z" fill="#ffc800" stroke="#231f20" stroke-miterlimit="10" stroke-width="3"/><path d="M313.16,192.16l43.16,70.93s-.03,0-.05,0c-.15,0-.3,0-.45-.01-.34-.01-.68-.02-1.01-.04-.17,0-.33-.02-.49-.02-.34-.02-.68-.04-1.02-.06-.14,0-.28-.02-.42-.03-.47-.04-.95-.08-1.42-.13-.06,0-.12-.01-.18-.02-.41-.04-.83-.09-1.24-.14-.15-.02-.31-.04-.46-.06-.32-.04-.64-.09-.96-.13-.16-.02-.33-.05-.49-.07-.34-.05-.67-.11-1-.17-.13-.02-.26-.04-.4-.07-.46-.08-.91-.17-1.36-.26-.1-.02-.2-.04-.3-.06-.36-.07-.71-.15-1.07-.23-.16-.04-.32-.07-.48-.11-.3-.07-.6-.14-.9-.22-.16-.04-.33-.08-.49-.13-.32-.08-.64-.17-.96-.26-.13-.04-.25-.07-.38-.11-.43-.12-.86-.25-1.29-.38-.13-.04-.26-.08-.39-.12-.31-.1-.62-.2-.92-.3-.17-.06-.33-.11-.5-.17-.27-.09-.55-.19-.82-.29-.17-.06-.33-.12-.5-.18-.3-.11-.6-.23-.9-.34-.13-.05-.26-.1-.38-.15-.41-.16-.81-.33-1.21-.49-.15-.07-.31-.13-.46-.2-.26-.11-.52-.23-.78-.34-.18-.08-.35-.16-.53-.24-.24-.11-.48-.22-.72-.34-.17-.08-.35-.16-.52-.25-.27-.13-.54-.27-.81-.4-.17-.09-.34-.17-.51-.26-.34-.18-.68-.35-1.01-.53-.17-.09-.35-.19-.52-.29-.22-.12-.44-.24-.65-.37-.18-.1-.37-.21-.55-.32-.21-.12-.41-.24-.62-.37-.18-.11-.36-.22-.54-.33-.19-.12-.39-.24-.58-.36l-.12,.15-2.12-1.62c-.14-.1-.29-.2-.43-.3-.19-.14-.38-.27-.57-.41-.17-.12-.34-.24-.5-.37-.19-.14-.38-.28-.58-.43-.16-.12-.32-.25-.48-.37-.35-.27-.7-.54-1.05-.82-.15-.12-.29-.23-.44-.35-.2-.16-.39-.33-.59-.49-.07-.06-.13-.11-.2-.17l-50.81-38.88c-21.55-13.21-37.05-35.31-41.38-61.2l87.37,43.68Z" fill="#ffc800" stroke="#231f20" stroke-miterlimit="10" stroke-width="3"/></g></g><g><path d="M210.4,181.74h0c-7.21,16.78-18.84,31.29-33.66,41.98l-.55,.4h68.42l-1.65-1.23c-13.69-10.17-24.75-23.81-31.82-39.33l-.74-1.82Z" fill="#ffc800" stroke="#231f20" stroke-miterlimit="10" stroke-width="3"/><polygon points="277.67 247.64 143.17 247.64 125.24 261.62 125.24 281.27 295.16 281.27 295.16 261.62 277.67 247.64" fill="#ffc800" stroke="#231f20" stroke-miterlimit="10" stroke-width="3"/><g><path d="M129.31,305.92c2.19,11.36,5.47,22.05,9.66,31.83h143.85c4.19-9.78,7.46-20.47,9.66-31.83H129.31Z" fill="#ffc800" stroke="#231f20" stroke-miterlimit="10" stroke-width="3"/><path d="M268.95,362.41h-116.12c9.45,12.98,20.94,22.83,33.7,28.41l24.36,26.62,24.45-26.66c12.72-5.59,24.19-15.42,33.62-28.38Z" fill="#ffc800" stroke="#231f20" stroke-miterlimit="10" stroke-width="3"/></g></g><g><path d="M210.4,60.89c-30.22,0-54.71,24.5-54.71,54.71h109.43c0-30.22-24.5-54.71-54.71-54.71Z" fill="#ffc800" stroke="#231f20" stroke-miterlimit="10" stroke-width="3"/><g><path d="M247.17,34.87l13.64-13.64h25.77V1.5h-33.95l-25.2,25.2v18.87c6.95,1.49,13.58,3.88,19.74,7.04v-17.74Z" fill="#ffc800" stroke="#231f20" stroke-miterlimit="10" stroke-width="3"/><path d="M193.08,45.63V26.7L167.88,1.5h-33.95V21.24h25.77l13.64,13.64v17.89c6.16-3.19,12.78-5.61,19.74-7.13Z" fill="#ffc800" stroke="#231f20" stroke-miterlimit="10" stroke-width="3"/></g></g></g></g></svg>